<svg xmlns="http://www.w3.org/2000/svg" xmlns:xlink="http://www.w3.org/1999/xlink" viewBox="0 0 418.59 542.95"><defs><style>.cls-1{fill:none;}.cls-2{fill:#e9e9fc;}.cls-3{clip-path:url(#clip-path);}.cls-4{fill:#bcd7ff;}.cls-5{fill:#f5f5fe;}.cls-6{fill:#d7d7fb;}.cls-7{fill:#e8e8fd;}.cls-8{fill:#c9c9fa;}.cls-9{fill:#fff;}.cls-10{fill:#6300fa;}.cls-11{fill:#f1f7ff;}.cls-12{fill:#b7b7f7;}.cls-13{fill:#a8a8f7;}.cls-14{fill:#f0f0fd;}.cls-15{fill:#cbcbfa;}.cls-16{fill:#b1b1f7;}.cls-17{fill:#a10aff;}.cls-18{fill:#e2b779;}.cls-19{fill:#c077ff;}.cls-20{fill:#6a17ff;}.cls-21{fill:#f1f1f1;}.cls-22{fill:#d89bff;}.cls-23{fill:#c50071;}.cls-24{fill:#ff6ec1;}.cls-25{fill:#ec0087;}.cls-26{fill:#ff9cd5;}.cls-27{fill:#c24502;}.cls-28{fill:#fd8444;}.cls-29{fill:#ba4202;}.cls-30{fill:#feae83;}.cls-31{fill:#f05503;}</style><clipPath id="clip-path"><path class="cls-1" d="M226.53,431.27l1.53.88-6.8,9-56.84-32.82a1.35,1.35,0,0,1-.33-.19h0a2.48,2.48,0,0,1-.83-2.07,7.51,7.51,0,0,1,3-5.62h0a2.56,2.56,0,0,1,.35-.22l20-11.54c5.95-3.43,11.35-9.34,15.25-16.11s6.33-14.39,6.33-21.27a20.65,20.65,0,0,0-1.25-7,17.4,17.4,0,0,0-3.13-5.51l0,0-61.51-72.21c-.86-1-.69-3.08.32-4.95h0a8.89,8.89,0,0,1,.64-1c1.43-1.91,3.31-2.66,4.4-1.84l56.45,32.59-3.48,2,.5,4.06,56.72,66.67,4.4,2.55,3.24,10,2.91,1.71-.94,4.41.94,2.93-1.4-.82-.8,3.77,2.2,1.27-15.2,24.92.85.49Z"/></clipPath></defs><title>Asset 2</title><g id="Layer_2" data-name="Layer 2"><g id="Layer_1-2" data-name="Layer 1"><g id="computer-screen"><path class="cls-2" d="M226.53,431.27l1.53.88-6.8,9-56.84-32.82a1.35,1.35,0,0,1-.33-.19h0a2.48,2.48,0,0,1-.83-2.07,7.51,7.51,0,0,1,3-5.62h0a2.56,2.56,0,0,1,.35-.22l20-11.54c5.95-3.43,11.35-9.34,15.25-16.11s6.33-14.39,6.33-21.27a20.65,20.65,0,0,0-1.25-7,17.4,17.4,0,0,0-3.13-5.51l0,0-61.51-72.21c-.86-1-.69-3.08.32-4.95h0a8.89,8.89,0,0,1,.64-1c1.43-1.91,3.31-2.66,4.4-1.84l56.45,32.59-3.48,2,.5,4.06,56.72,66.67,4.4,2.55,3.24,10,2.91,1.71-.94,4.41.94,2.93-1.4-.82-.8,3.77,2.2,1.27-15.2,24.92.85.49Z"/><g class="cls-3"><path class="cls-4" d="M145,257.23l-9.15,5.28,64.66,37.34,9.16-5.29Z"/><path class="cls-5" d="M165.78,400.87,158.61,405l63,36.4,7.17-4.14Z"/></g><path class="cls-6" d="M260.57,371.57l-61.51-72.21c-1-1.2-.6-3.87.95-5.95s3.65-2.79,4.67-1.59L266.19,364a21.45,21.45,0,0,1,3.9,6.86,27.6,27.6,0,0,1,1.62,9.34c0,9-3.17,19-8.3,27.91s-12.2,16.63-20,21.15l-20,11.53c-1.86,1.07-3.37.2-3.37-1.95a7.45,7.45,0,0,1,3.37-5.83l20-11.54c6-3.44,11.35-9.34,15.26-16.11S265,391,265,384.12a20.65,20.65,0,0,0-1.25-7,17.1,17.1,0,0,0-3.13-5.51h0Z"/><path class="cls-7" d="M124.21.65A5.68,5.68,0,0,1,130,1L412.09,163.68c4.21,2.43,7.08,8.64,6.4,13.87L386.28,424.69c-.34,2.6-1.49,4.47-3.09,5.39h0a3.48,3.48,0,0,1-.43.22l-8.68,4.45.23-6.78-279-160.92c-4.22-2.43-7.09-8.64-6.41-13.87L120.66,9.62,115.5,5.11,124.21.65Z"/><path class="cls-8" d="M417.83,182.69l-12.12,4.76-31.62,247.2.88-.35,8.22-4.22a7,7,0,0,0,3.09-5.38Z"/><path class="cls-9" d="M409.38,182.21c.68-5.22-2.18-11.44-6.4-13.87L120.89,5.64c-4.22-2.43-8.19-.16-8.87,5.06L79.8,257.85c-.68,5.22,2.19,11.43,6.4,13.87l282.1,162.7c4.21,2.43,8.19.16,8.87-5.06Z"/><path class="cls-10" d="M406.48,183c.67-5.17-2.17-11.33-6.35-13.74L120.52,7.94c-4.18-2.41-8.12-.16-8.8,5L83.53,229.26l294.75,170L406.48,183Z"/><path class="cls-5" d="M378.28,399.26l-294.75-170-3.74,28.67c-.67,5.18,2.17,11.34,6.35,13.75L365.75,433c4.18,2.41,8.12.16,8.8-5l3.73-28.67Z"/></g><path class="cls-6" d="M5.94,448.76l66.49-42.11c5.33-3.07,14.64-2.69,20.8.86l108.89,66.78,29.51,17,8.32,2.81v2.19h0c-.1,1.87-1.28,3.64-3.59,5l-68.88,39.57c-5.33,3.08-14.65,2.69-20.8-.86L5,458.23c-3.72-2.15-5-4.8-5-7.54H0v-1.52l5.93-.41Z"/><path class="cls-11" d="M93.27,404.89c-6.15-3.55-15.46-3.94-20.79-.86L3.59,443.61c-5.32,3.07-4.65,8.45,1.5,12l141.64,81.78c6.15,3.55,15.47,3.94,20.79.86l68.89-39.58c5.32-3.07,4.65-8.45-1.5-12Z"/><path class="cls-2" d="M92.31,405.51c-5.37-3.1-13.51-3.44-18.16-.75L4.86,444.57C.2,447.26.79,452,6.16,455.06l141.53,81.71c5.37,3.1,13.51,3.44,18.16.75l69.29-39.81c4.66-2.68,4.07-7.38-1.3-10.48Z"/><path class="cls-12" d="M139.89,524.36a.78.78,0,0,1,.46-.75l6.27-3.61a3,3,0,0,1,2.7.11l7.24,4.17c.48.28.7.65.65,1v.88h0a.77.77,0,0,1-.45.82l-6.26,3.61a3,3,0,0,1-2.71-.11l-7.23-4.17a1.2,1.2,0,0,1-.66-.79h0v-1.13Zm20.89-3a.78.78,0,0,1,.46-.75L167.5,517a3,3,0,0,1,2.71.11l7.23,4.18c.48.27.71.64.65,1v.88h0a.78.78,0,0,1-.46.82l-6.26,3.62a3,3,0,0,1-2.7-.12l-7.24-4.17a1.19,1.19,0,0,1-.65-.79h0v0a.29.29,0,0,1,0-.13v-1ZM126,516.32a.78.78,0,0,1,.46-.75l6.26-3.61a3,3,0,0,1,2.71.11l7.23,4.18c.48.27.71.64.66,1v.88h0a.76.76,0,0,1-.46.81l-6.26,3.61a3,3,0,0,1-2.7-.11l-7.24-4.17a1.19,1.19,0,0,1-.65-.79h0v0a.29.29,0,0,1,0-.13v-1Zm20.94-2.93a.76.76,0,0,1,.46-.74l6.26-3.62a3,3,0,0,1,2.71.11l7.23,4.18c.48.28.71.64.65,1v.88h0a.77.77,0,0,1-.45.81l-6.27,3.62a3,3,0,0,1-2.7-.12l-7.23-4.17a1.18,1.18,0,0,1-.66-.79h0v0a.29.29,0,0,1,0-.13v-1Zm19.18-4.16a.77.77,0,0,1,.46-.74l6.26-3.62a3,3,0,0,1,2.71.11l7.23,4.18c.48.28.71.64.65,1V511h0a.76.76,0,0,1-.46.81l-6.26,3.62a3,3,0,0,1-2.7-.11l-7.24-4.18a1.19,1.19,0,0,1-.65-.79h0v0a.28.28,0,0,1,0-.13v-1Zm-53.92-.88a.76.76,0,0,1,.46-.74L118.9,504a3,3,0,0,1,2.7.11l7.23,4.18c.48.28.71.64.66,1v.87h0a.77.77,0,0,1-.45.81l-6.27,3.62a3,3,0,0,1-2.7-.11l-7.23-4.18a1.18,1.18,0,0,1-.66-.79h0v0a.28.28,0,0,1,0-.13v-1Zm74.8-2.08a.79.79,0,0,1,.47-.74l6.26-3.62a3,3,0,0,1,2.7.12l7.24,4.17c.48.28.7.64.65,1v.88h0a.74.74,0,0,1-.45.81l-6.26,3.62a3,3,0,0,1-2.71-.11l-7.23-4.18a1.19,1.19,0,0,1-.65-.79h0v-1.14Zm-54-.92a.77.77,0,0,1,.47-.74l6.26-3.62a3,3,0,0,1,2.7.11l7.24,4.18c.48.28.7.64.65,1v.87h0a.74.74,0,0,1-.45.81l-6.26,3.62a3,3,0,0,1-2.7-.11l-7.24-4.18a1.19,1.19,0,0,1-.65-.79h0v-1.14Zm19.18-4.16a.79.79,0,0,1,.47-.74l6.26-3.62a3,3,0,0,1,2.71.12l7.23,4.17c.48.28.7.64.65,1V503h0a.74.74,0,0,1-.45.81l-6.26,3.62a3,3,0,0,1-2.71-.11l-7.23-4.18a1.17,1.17,0,0,1-.65-.79h0v-1.14Zm-53.92-.88a.8.8,0,0,1,.47-.74L105,496a3,3,0,0,1,2.7.12l7.24,4.17c.48.28.7.64.65,1v.88h0a.76.76,0,0,1-.46.81l-6.26,3.62a3,3,0,0,1-2.7-.11l-7.24-4.18a1.17,1.17,0,0,1-.65-.79h0v-1.14Zm74.86-2.05a.79.79,0,0,1,.47-.74l6.26-3.62a3,3,0,0,1,2.7.12l7.24,4.17c.48.28.7.65.65,1v.88h0a.74.74,0,0,1-.45.81l-6.26,3.62a3,3,0,0,1-2.71-.11l-7.23-4.18a1.17,1.17,0,0,1-.65-.79h0v-1.14Zm-53.92-.88a.81.81,0,0,1,.47-.74l6.26-3.62a3,3,0,0,1,2.71.12l7.23,4.17c.48.28.7.64.65,1v.88h0a.76.76,0,0,1-.46.81l-6.26,3.62a3,3,0,0,1-2.7-.11l-7.24-4.18a1.17,1.17,0,0,1-.65-.79h0v-1.14Zm72.94-3.18a.78.78,0,0,1,.46-.74l6.26-3.62a3,3,0,0,1,2.71.12l7.23,4.17c.48.28.71.65.66,1V496h0a.77.77,0,0,1-.45.81l-6.27,3.62a3,3,0,0,1-2.7-.11l-7.24-4.18a1.19,1.19,0,0,1-.65-.79h0v0a.33.33,0,0,1,0-.14v-1Zm-53.76-1a.81.81,0,0,1,.47-.75l6.26-3.61a3,3,0,0,1,2.71.11l7.23,4.17c.48.28.7.65.65,1V495h0a.78.78,0,0,1-.46.82L149,499.44a3,3,0,0,1-2.7-.11L139,495.16a1.21,1.21,0,0,1-.65-.79h0v-1.13Zm-54-.93a.78.78,0,0,1,.46-.74l6.26-3.62a3,3,0,0,1,2.71.12l7.23,4.17c.48.28.7.65.65,1v.88h0a.76.76,0,0,1-.45.82L95,498.52a3,3,0,0,1-2.7-.11L85,494.23a1.17,1.17,0,0,1-.65-.79h0v0a.28.28,0,0,1,0-.13v-1ZM213,491.24a.81.81,0,0,1,.47-.74l6.26-3.62a3,3,0,0,1,2.7.12l7.24,4.17c.48.28.7.64.65,1V493h0a.74.74,0,0,1-.45.81l-6.26,3.62a3,3,0,0,1-2.71-.11l-7.23-4.18a1.17,1.17,0,0,1-.65-.79h0v-1.14Zm-53.82-1a.78.78,0,0,1,.46-.75l6.27-3.61a3,3,0,0,1,2.7.11l7.23,4.17c.49.28.71.65.66,1V492h0a.75.75,0,0,1-.45.82l-6.27,3.61a3,3,0,0,1-2.7-.11l-7.23-4.17a1.2,1.2,0,0,1-.66-.79h0v-1.13Zm-53.92-.88a.78.78,0,0,1,.47-.75L112,485a3,3,0,0,1,2.7.11l7.23,4.17c.49.28.71.65.66,1v.88h0a.75.75,0,0,1-.45.82l-6.27,3.61a3,3,0,0,1-2.7-.11l-7.23-4.17a1.23,1.23,0,0,1-.66-.79h0v-1.13Zm72.93-3.19a.79.79,0,0,1,.47-.74l6.26-3.62a3,3,0,0,1,2.7.12l7.24,4.17c.48.28.7.65.65,1V488h0a.76.76,0,0,1-.45.82l-6.26,3.61a3,3,0,0,1-2.71-.11l-7.23-4.18a1.17,1.17,0,0,1-.65-.79h0v-1.14Zm-53.75-1a.78.78,0,0,1,.46-.75l6.27-3.61a3,3,0,0,1,2.7.11l7.23,4.18c.49.27.71.64.66,1V487h0a.74.74,0,0,1-.45.81L135,491.4a3,3,0,0,1-2.7-.11l-7.23-4.17a1.18,1.18,0,0,1-.66-.79h0v-1.14Zm-54-.92a.78.78,0,0,1,.47-.75l6.26-3.61a3,3,0,0,1,2.7.11l7.24,4.17c.48.28.7.65.65,1v.88h0a.75.75,0,0,1-.45.82l-6.26,3.61a3,3,0,0,1-2.71-.11l-7.23-4.17a1.27,1.27,0,0,1-.66-.79h0v-1.13Zm128.68-1a.81.81,0,0,1,.47-.75l6.26-3.61a3,3,0,0,1,2.71.11l7.23,4.17c.48.28.7.65.65,1V485h0a.75.75,0,0,1-.45.82l-6.26,3.61a3,3,0,0,1-2.71-.11l-7.23-4.17a1.21,1.21,0,0,1-.65-.79h0v-1.13Zm-53.75-1a.76.76,0,0,1,.46-.74l6.27-3.62a3,3,0,0,1,2.7.11l7.23,4.18c.49.28.71.64.66,1V484h0a.74.74,0,0,1-.45.81L156,488.48a3,3,0,0,1-2.7-.12L146,484.19a1.21,1.21,0,0,1-.66-.79h0v-1.14Zm-54-.92a.79.79,0,0,1,.47-.75L98.12,477a3,3,0,0,1,2.7.11l7.24,4.18c.48.27.7.64.65,1v.88h0a.75.75,0,0,1-.45.81L102,487.56a3,3,0,0,1-2.71-.12l-7.23-4.17a1.19,1.19,0,0,1-.65-.79h0v-1.13Zm73-3.14a.76.76,0,0,1,.46-.74l6.26-3.62a3,3,0,0,1,2.71.11l7.23,4.18c.48.27.7.64.65,1V480h0a.76.76,0,0,1-.46.81L175,484.42a3,3,0,0,1-2.7-.12l-7.24-4.17a1.19,1.19,0,0,1-.65-.79h0v0a.29.29,0,0,1,0-.13v-1Zm-53.83-1a.76.76,0,0,1,.47-.74l6.26-3.62a3,3,0,0,1,2.7.11l7.24,4.18c.48.28.7.64.65,1V479h0a.74.74,0,0,1-.45.81l-6.26,3.62a3,3,0,0,1-2.71-.11l-7.23-4.18a1.24,1.24,0,0,1-.66-.79h0v-1.14Zm-53.83-.83a.76.76,0,0,1,.47-.74L63.47,472a3,3,0,0,1,2.7.11l7.24,4.18c.48.28.7.64.65,1v.87h0a.74.74,0,0,1-.45.81l-6.26,3.62a3,3,0,0,1-2.71-.11l-7.23-4.18a1.24,1.24,0,0,1-.66-.79h0v-1.14Zm128.47-1.15a.78.78,0,0,1,.47-.75l6.26-3.61a3,3,0,0,1,2.7.11l7.23,4.18c.49.27.71.64.66,1V477h0a.74.74,0,0,1-.45.81l-6.27,3.62a3,3,0,0,1-2.7-.12l-7.23-4.17a1.21,1.21,0,0,1-.66-.79h0V475.2Zm-53.75-1a.76.76,0,0,1,.46-.74l6.27-3.62a3,3,0,0,1,2.7.11l7.23,4.18c.48.28.71.64.66,1V476h0a.75.75,0,0,1-.45.81l-6.27,3.62a3,3,0,0,1-2.7-.11l-7.23-4.18a1.18,1.18,0,0,1-.66-.79h0v0a.28.28,0,0,1,0-.13v-1Zm-54-.92a.76.76,0,0,1,.46-.74l6.27-3.62a3,3,0,0,1,2.7.11l7.23,4.18c.49.28.71.64.66,1v.88h0a.75.75,0,0,1-.45.81l-6.27,3.62a3,3,0,0,1-2.7-.12l-7.23-4.17a1.18,1.18,0,0,1-.66-.79h0v0a.29.29,0,0,1,0-.13v-1Zm73-3.14a.76.76,0,0,1,.47-.74l6.26-3.62a3,3,0,0,1,2.7.11l7.24,4.18c.48.28.7.64.65,1v.88h0a.74.74,0,0,1-.45.81l-6.26,3.62a3,3,0,0,1-2.71-.11l-7.23-4.18a1.19,1.19,0,0,1-.65-.79h0v-1.14Zm-53.82-1a.77.77,0,0,1,.46-.74l6.27-3.62a3,3,0,0,1,2.7.11l7.23,4.18c.48.28.71.64.66,1v.88h0a.77.77,0,0,1-.45.81l-6.27,3.62a3,3,0,0,1-2.7-.11l-7.23-4.18a1.18,1.18,0,0,1-.66-.79h0v0a.28.28,0,0,1,0-.13v-1Zm-53.83-.83a.77.77,0,0,1,.46-.74L49.55,464a3,3,0,0,1,2.7.11l7.23,4.18c.48.28.71.64.66,1v.87h0a.75.75,0,0,1-.45.81l-6.27,3.62a3,3,0,0,1-2.7-.11l-7.24-4.18a1.19,1.19,0,0,1-.65-.79h0v0a.28.28,0,0,1,0-.13v-1Zm128.59-1.08a.79.79,0,0,1,.46-.74l6.27-3.62a3,3,0,0,1,2.7.11l7.24,4.18c.48.28.7.64.65,1V469h0a.74.74,0,0,1-.45.81L182,473.45a3,3,0,0,1-2.71-.11l-7.23-4.18a1.21,1.21,0,0,1-.66-.79h0v-1.14Zm-53.82-1a.78.78,0,0,1,.46-.74l6.27-3.62a3,3,0,0,1,2.7.12l7.23,4.17c.49.28.71.65.66,1V468h0a.75.75,0,0,1-.45.81l-6.27,3.62a3,3,0,0,1-2.7-.11l-7.23-4.18a1.16,1.16,0,0,1-.66-.79h0v0a.28.28,0,0,1,0-.13v-1Zm-53.83-.83a.78.78,0,0,1,.46-.74L70.49,461a3,3,0,0,1,2.7.12l7.23,4.17c.49.28.71.65.66,1v.88h0a.77.77,0,0,1-.45.82l-6.27,3.61a3,3,0,0,1-2.7-.11l-7.23-4.18a1.16,1.16,0,0,1-.66-.79h0v0a.28.28,0,0,1,0-.13v-1Zm72.84-3.23a.78.78,0,0,1,.47-.74l6.26-3.62a3,3,0,0,1,2.7.11l7.24,4.18c.48.28.7.64.65,1v.88h0a.74.74,0,0,1-.45.81l-6.26,3.62a3,3,0,0,1-2.71-.11l-7.23-4.18a1.16,1.16,0,0,1-.65-.79h0v-1.14Zm-53.66-.92a.78.78,0,0,1,.46-.75l6.26-3.61a3,3,0,0,1,2.71.11l7.23,4.18c.48.27.71.64.66,1V463h0a.76.76,0,0,1-.45.81l-6.27,3.61a3,3,0,0,1-2.7-.11l-7.23-4.17a1.18,1.18,0,0,1-.66-.79h0v0a.28.28,0,0,1,0-.13v-1Zm-54-.92a.78.78,0,0,1,.46-.75L35.68,456a3,3,0,0,1,2.7.11l7.23,4.17c.48.28.71.65.66,1v.88h0a.79.79,0,0,1-.45.82l-6.27,3.61a3,3,0,0,1-2.7-.11l-7.23-4.18a1.17,1.17,0,0,1-.66-.78h0v0a.28.28,0,0,1,0-.13v-1Zm128.54-1.12a.78.78,0,0,1,.46-.74l6.27-3.62a3,3,0,0,1,2.7.12l7.23,4.17c.48.28.71.64.66,1V461h0a.75.75,0,0,1-.45.81l-6.27,3.62a3,3,0,0,1-2.7-.11l-7.23-4.18a1.18,1.18,0,0,1-.66-.79h0v0a.33.33,0,0,1,0-.14v-1Zm-53.82-1a.78.78,0,0,1,.46-.75l6.26-3.61a3,3,0,0,1,2.71.11l7.23,4.17c.48.28.7.65.65,1V460h0a.78.78,0,0,1-.46.82l-6.26,3.61a3,3,0,0,1-2.7-.11l-7.24-4.18a1.18,1.18,0,0,1-.65-.78h0v0a.28.28,0,0,1,0-.13v-1Zm-53.83-.83a.78.78,0,0,1,.46-.75L56.56,453a3.06,3.06,0,0,1,2.71.12l7.23,4.17c.48.28.7.65.65,1v.88h0a.78.78,0,0,1-.46.82l-6.26,3.61a3,3,0,0,1-2.7-.11l-7.24-4.18a1.17,1.17,0,0,1-.65-.79h0v0a.28.28,0,0,1,0-.13v-1Zm72.84-3.24a.78.78,0,0,1,.46-.74l6.27-3.62a3,3,0,0,1,2.7.12l7.23,4.17c.48.28.71.64.66,1v.88h0a.75.75,0,0,1-.45.81l-6.27,3.62a3,3,0,0,1-2.7-.11L123.34,456a1.16,1.16,0,0,1-.66-.79h0v0a.33.33,0,0,1,0-.14v-1ZM69,453.19a.81.81,0,0,1,.47-.75l6.26-3.61a3,3,0,0,1,2.71.11l7.23,4.18c.48.27.7.64.65,1V455h0a.77.77,0,0,1-.46.81l-6.26,3.62a3,3,0,0,1-2.7-.12l-7.24-4.17a1.19,1.19,0,0,1-.65-.79h0v-1.14Zm-54-.92a.81.81,0,0,1,.47-.75l6.26-3.61a3,3,0,0,1,2.71.11l7.23,4.17c.48.28.71.65.65,1v.88h0a.77.77,0,0,1-.46.81l-6.26,3.61a3,3,0,0,1-2.7-.11l-7.24-4.17a1.21,1.21,0,0,1-.65-.79h0v-1.13Zm128.6-1.09a.78.78,0,0,1,.46-.74l6.27-3.62a3,3,0,0,1,2.7.12l7.23,4.17c.48.28.71.65.66,1V453h0a.75.75,0,0,1-.45.81l-6.27,3.62a3,3,0,0,1-2.7-.11l-7.23-4.18a1.16,1.16,0,0,1-.66-.79h0v0a.28.28,0,0,1,0-.13v-1ZM90,450.26a.79.79,0,0,1,.47-.74l6.26-3.62a3,3,0,0,1,2.71.11l7.23,4.18c.48.28.7.64.65,1V452h0a.76.76,0,0,1-.46.81l-6.26,3.62a3,3,0,0,1-2.7-.12l-7.24-4.17a1.19,1.19,0,0,1-.65-.79h0v-1.14Zm-54-.92a.79.79,0,0,1,.47-.74L42.69,445a3,3,0,0,1,2.71.11l7.23,4.18c.48.27.71.64.65,1v.88h0a.76.76,0,0,1-.46.81l-6.26,3.62a3,3,0,0,1-2.7-.12l-7.24-4.17a1.19,1.19,0,0,1-.65-.79h0v0a.29.29,0,0,1,0-.13v-1Zm73-3.14a.78.78,0,0,1,.46-.75l6.27-3.61a3,3,0,0,1,2.7.11l7.23,4.18c.48.27.71.64.66,1V448h0a.75.75,0,0,1-.45.81l-6.27,3.61a3,3,0,0,1-2.7-.11l-7.23-4.17a1.2,1.2,0,0,1-.66-.79h0v0a.29.29,0,0,1,0-.13v-1Zm-53.83-1a.79.79,0,0,1,.47-.74l6.26-3.62a3,3,0,0,1,2.71.11l7.23,4.18c.48.28.7.64.65,1V447h0a.76.76,0,0,1-.46.81l-6.26,3.62a3,3,0,0,1-2.7-.12l-7.24-4.17a1.19,1.19,0,0,1-.65-.79h0v-1.14Zm74.56-2a.78.78,0,0,1,.46-.75l6.26-3.61a3,3,0,0,1,2.71.11l7.23,4.17c.48.28.71.65.65,1v.88h0a.78.78,0,0,1-.46.82l-6.26,3.61a3,3,0,0,1-2.7-.11l-7.23-4.17a1.2,1.2,0,0,1-.66-.79h0v0a.29.29,0,0,1,0-.13v-1ZM76,442.22a.76.76,0,0,1,.47-.74l6.26-3.62a3,3,0,0,1,2.7.11l7.24,4.18c.48.28.7.64.65,1V444h0a.74.74,0,0,1-.45.81l-6.26,3.62a3,3,0,0,1-2.71-.11l-7.23-4.18a1.24,1.24,0,0,1-.66-.79h0v-1.14Zm-54-.92a.76.76,0,0,1,.47-.74l6.26-3.62a3,3,0,0,1,2.7.11l7.23,4.18c.49.28.71.64.66,1v.88h0a.74.74,0,0,1-.45.81l-6.26,3.62a3,3,0,0,1-2.71-.11l-7.23-4.18a1.19,1.19,0,0,1-.65-.79h0V441.3Zm73-3.14a.79.79,0,0,1,.47-.74l6.26-3.62a3,3,0,0,1,2.71.11l7.23,4.18c.48.27.71.64.65,1v.88h0a.76.76,0,0,1-.46.81l-6.26,3.62a3,3,0,0,1-2.7-.12l-7.24-4.17a1.19,1.19,0,0,1-.65-.79h0v-1.14Zm-53.82-1a.78.78,0,0,1,.46-.74L48,432.78a3,3,0,0,1,2.7.11l7.24,4.18c.48.28.7.64.65,1v.88h0a.74.74,0,0,1-.45.81l-6.26,3.62a3,3,0,0,1-2.71-.11l-7.23-4.18a1.19,1.19,0,0,1-.65-.79h0v-1.14ZM116,435.23a.79.79,0,0,1,.47-.74l6.26-3.62a3,3,0,0,1,2.71.11l7.23,4.18c.48.28.7.64.65,1V437h0a.76.76,0,0,1-.46.81l-6.26,3.62a3,3,0,0,1-2.7-.11l-7.24-4.18a1.19,1.19,0,0,1-.65-.79h0v0a.28.28,0,0,1,0-.13v-1Zm-53.82-1a.77.77,0,0,1,.47-.74l6.26-3.62a3,3,0,0,1,2.7.12l7.24,4.17c.48.28.7.64.65,1V436h0a.74.74,0,0,1-.45.81l-6.26,3.62a3,3,0,0,1-2.71-.11l-7.23-4.18a1.15,1.15,0,0,1-.65-.79h0v-1.14Zm19-4.06a.77.77,0,0,1,.46-.74l6.26-3.62a3,3,0,0,1,2.71.11l7.23,4.18c.48.28.7.64.66,1v.88h0a.76.76,0,0,1-.46.81l-6.26,3.62a3,3,0,0,1-2.7-.11l-7.24-4.18a1.19,1.19,0,0,1-.65-.79h0v0a.28.28,0,0,1,0-.13v-1Zm20.88-3a.78.78,0,0,1,.47-.74l6.26-3.62a3,3,0,0,1,2.7.11l7.24,4.18c.48.28.7.64.65,1V429h0a.74.74,0,0,1-.45.81l-6.26,3.62a3,3,0,0,1-2.71-.11l-7.23-4.18a1.19,1.19,0,0,1-.65-.79h0v-1.14Zm-53.82-1a.78.78,0,0,1,.46-.75L55,421.81a3,3,0,0,1,2.7.12l7.23,4.17c.48.28.71.65.66,1V428h0a.77.77,0,0,1-.45.82l-6.27,3.61a3,3,0,0,1-2.7-.11L48.9,428.1a1.16,1.16,0,0,1-.66-.79h0v0a.28.28,0,0,1,0-.13v-1Zm19-4.07a.78.78,0,0,1,.47-.74L74,417.75a3,3,0,0,1,2.7.11L83.92,422c.48.28.7.64.65,1v.88h0a.76.76,0,0,1-.45.82l-6.26,3.61a3,3,0,0,1-2.71-.11L67.91,424a1.17,1.17,0,0,1-.65-.79h0v-1.14Zm20.94-2.93a.79.79,0,0,1,.47-.74l6.26-3.61a3,3,0,0,1,2.7.11l7.24,4.17c.48.28.7.65.65,1V421h0a.76.76,0,0,1-.45.82l-6.26,3.61a3,3,0,0,1-2.71-.11l-7.23-4.18a1.17,1.17,0,0,1-.65-.79h0v-1.14Zm-13.92-8a.78.78,0,0,1,.46-.75L81,406.79a3,3,0,0,1,2.7.11l7.23,4.17c.49.28.71.65.66,1v.88h0a.77.77,0,0,1-.45.82l-6.27,3.61a3,3,0,0,1-2.7-.11l-7.23-4.17a1.2,1.2,0,0,1-.66-.79h0v0a.28.28,0,0,1,0-.13v-1Z"/><g id="computer-screen1"><path class="cls-13" d="M377.06,349.51c0,2.24-1.53,4.49-4.5,6.22L300,395c-5.8,3.37-15.44,3.51-21.24.16L4.3,236.67C1.41,235,0,232.8,0,230.58H0a3.77,3.77,0,0,1,0-.58l1.4-20.32,8,3.63,68.21-36.72c5.92-3.44,15.44-3.51,21.24-.16L369.39,332.59l9.08-3.44Z"/><path class="cls-14" d="M280.21,374.22c5.8,3.35,15.31,3.28,21.23-.16L374,334.81c5.92-3.43,6-8.94.21-12.3L99.75,164.05c-5.8-3.35-15.31-3.27-21.23.16L6,203.46c-5.92,3.44-6,8.95-.22,12.3L280.21,374.22Z"/><path class="cls-15" d="M281.37,370.64c5.75,3.32,15.18,3.25,21.05-.16l69.08-37.22c5.87-3.41,6-8.87.21-12.19L99.66,164c-5.75-3.32-15.19-3.25-21,.16L9.53,201.38c-5.87,3.41-6,8.87-.21,12.19L281.37,370.64Z"/><path class="cls-16" d="M179.34,220.19l-23.48-13.61-69,39.82L110.52,260l68.82-39.77Z"/><path class="cls-16" d="M150.27,203.41,126.46,189.6l-69,39.83,24,13.75,68.82-39.77Z"/><path class="cls-16" d="M122.62,187.44l-25.19-14.6-69,39.82L53.79,227.2Z"/><path class="cls-16" d="M261.49,267.63,241.2,255.85l-69,39.82,20.44,11.73,68.82-39.77Z"/><path class="cls-16" d="M231.43,251.2l-21.58-12.53-69,39.83L162.61,291Z"/><path class="cls-16" d="M204.76,234.88l-22-12.77-69,39.82,22.15,12.72Z"/></g><path class="cls-17" d="M104.45,65.37V172L36,211.54V104.89l68.43-39.52Z"/><path class="cls-18" d="M39.64,114.35,23.5,105.11h0l-2.1-1.21,18.24,10.44Z"/><path class="cls-19" d="M53.45,117l0,106.63L31.2,210.82l0-106.56L53.45,117Z"/><path class="cls-20" d="M123.64,76.49V183.14L53.44,223.66V117Z"/><path class="cls-21" d="M113.51,80l-13.2-7.68L38.52,108l13.35,7.63Z"/><path class="cls-22" d="M104.45,65.37l-3-1.71L31.16,104.25l3.12,1.66Z"/><path class="cls-22" d="M123.64,76.49l-3.25-1.88L52.57,113.75l3.4,1.83,67.66-39.09Z"/><path class="cls-22" d="M56.74,115.1,34.62,102.28l-3.43,2L53.47,117Z"/><path class="cls-17" d="M131.69,81.08V187.73L63.25,227.24V120.59l68.43-39.51Z"/><path class="cls-18" d="M66.88,130.06l-16.14-9.25h0l-2.1-1.21,18.24,10.45Z"/><path class="cls-19" d="M80.69,132.72l0,106.62L58.44,226.52,58.4,120l22.29,12.77Z"/><path class="cls-20" d="M150.87,92.19V198.84l-70.2,40.52,0-106.64Z"/><path class="cls-21" d="M140.74,95.67,127.54,88,65.75,123.65l13.36,7.63Z"/><path class="cls-22" d="M131.69,81.08l-3-1.72L58.4,120l3.12,1.67,70.17-40.54Z"/><path class="cls-22" d="M150.87,92.19l-3.24-1.88L79.81,129.45l3.39,1.83,67.67-39.09Z"/><path class="cls-22" d="M84,130.8,61.85,118l-3.43,2L80.7,132.73,84,130.8Z"/><path class="cls-23" d="M160.16,97.48V204.14L91.72,243.65V137l68.43-39.52Z"/><path class="cls-24" d="M109.16,149.13l0,106.63L86.91,242.93l0-106.56Z"/><path class="cls-25" d="M179.34,108.6V215.25l-70.2,40.53,0-106.65Z"/><path class="cls-21" d="M169.21,112.08,156,104.39,94.22,140.06l13.36,7.63Z"/><path class="cls-26" d="M160.16,97.48l-3-1.71L86.87,136.36,90,138l70.17-40.54Z"/><path class="cls-26" d="M179.34,108.6l-3.24-1.88-67.82,39.15,3.39,1.82,67.67-39.09Z"/><path class="cls-26" d="M112.44,147.21,90.32,134.4l-3.43,2,22.28,12.75,3.27-1.92Z"/><path class="cls-23" d="M186.92,113V219.64l-68.44,39.51,0-106.65Z"/><path class="cls-18" d="M122.11,162,106,152.72h0l-2.09-1.21L122.11,162Z"/><path class="cls-24" d="M135.92,164.63l0,106.63-22.27-12.82,0-106.57Z"/><path class="cls-25" d="M206.1,124.1V230.76l-70.19,40.52V164.63Z"/><path class="cls-21" d="M196,127.58l-13.21-7.68L121,155.56l13.36,7.63Z"/><path class="cls-26" d="M186.92,113l-3-1.72-70.32,40.59,3.11,1.67Z"/><path class="cls-26" d="M206.1,124.1l-3.24-1.88L135,161.37l3.4,1.82L206.1,124.1Z"/><path class="cls-26" d="M139.2,162.71,117.08,149.9l-3.43,2,22.28,12.76Z"/><path class="cls-27" d="M214.15,128.68V235.34l-68.44,39.51,0-106.65Z"/><path class="cls-18" d="M149.34,177.67l-16.13-9.24h0l-2.1-1.21,18.23,10.44Z"/><path class="cls-28" d="M163.16,180.33V287l-22.26-12.82,0-106.57,22.29,12.76Z"/><path class="cls-29" d="M233.34,139.8V246.45L163.15,287V180.33Z"/><path class="cls-21" d="M223.21,143.28,210,135.6l-61.79,35.67,13.36,7.63Z"/><path class="cls-30" d="M214.15,128.68l-3-1.71-70.32,40.59,3.12,1.66Z"/><path class="cls-30" d="M233.34,139.8l-3.25-1.88-67.82,39.15,3.4,1.82,67.67-39.09Z"/><path class="cls-30" d="M166.44,178.42,144.32,165.6l-3.42,2,22.27,12.76,3.27-1.92Z"/><path class="cls-27" d="M242.62,145.1V251.75l-68.44,39.51,0-106.65Z"/><path class="cls-28" d="M191.62,196.75l0,106.62-22.27-12.82,0-106.57Z"/><path class="cls-31" d="M261.81,156.21V262.87l-70.19,40.52V196.74Z"/><path class="cls-21" d="M251.68,159.69,238.48,152l-61.79,35.66L190,195.3Z"/><path class="cls-30" d="M242.62,145.1l-3-1.72L169.34,184l3.12,1.66Z"/><path class="cls-30" d="M261.81,156.21l-3.25-1.88-67.82,39.15,3.4,1.83Z"/><path class="cls-30" d="M194.91,194.82,172.79,182l-3.43,2,22.28,12.76,3.27-1.93Z"/><path class="cls-23" d="M267,174.91V281.57l68.44,39.51,0-106.65Z"/><path class="cls-24" d="M318,226.55l0,106.63,22.26-12.82,0-106.57L318,226.55Z"/><path class="cls-25" d="M247.82,186V292.67L318,333.2l0-106.65Z"/><path class="cls-21" d="M258,189.5l13.2-7.68,61.79,35.67-13.36,7.63Z"/><path class="cls-26" d="M267,174.91l3-1.71,70.32,40.59-3.12,1.66L267,174.91Z"/><path class="cls-26" d="M247.83,186l3.24-1.88,67.82,39.15-3.4,1.82L247.83,186Z"/><path class="cls-26" d="M314.72,224.64l22.12-12.81,3.43,2L318,226.56l-3.27-1.92Z"/><path class="cls-23" d="M240.24,190.41V297.06l68.44,39.51,0-106.65Z"/><path class="cls-18" d="M305.05,239.4l16.14-9.25h0l2.1-1.21L305.05,239.4Z"/><path class="cls-24" d="M291.23,242.06V348.68l22.26-12.82,0-106.57-22.28,12.77Z"/><path class="cls-25" d="M221.06,201.52V308.18l70.19,40.52V242.05Z"/><path class="cls-21" d="M231.18,205l13.2-7.68L306.17,233l-13.35,7.63Z"/><path class="cls-26" d="M240.24,190.41l3-1.72,70.32,40.59L310.4,231Z"/><path class="cls-26" d="M221.06,201.52l3.24-1.87,67.82,39.14-3.4,1.83Z"/><path class="cls-26" d="M288,240.14l22.13-12.81,3.42,2-22.28,12.76Z"/></g></g></svg>