<svg width="60" height="60" viewBox="0 0 60 60" fill="none" xmlns="http://www.w3.org/2000/svg">
<path d="M20 60C25.5176 60 30 55.5225 30 50V40H20C14.4824 40 10 44.4775 10 50C10 55.5225 14.4824 60 20 60Z" fill="#7F1DE4"/>
<path d="M10 30C10 24.4824 14.4824 20 20 20H30V40H20C14.4824 40 10 35.5225 10 30Z" fill="#7F1DE4"/>
<path d="M10 10C10 4.48242 14.4824 0 20 0H30V20H20C14.4824 20 10 15.5225 10 10Z" fill="#7F1DE4"/>
<path d="M30 0H40C45.5176 0 50 4.48242 50 10C50 15.5225 45.5225 20 40 20H30V0Z" fill="#7F1DE4"/>
<path d="M50 30C50 35.5225 45.5225 40 40 40C34.4775 40 30 35.5225 30 30C30 24.4824 34.4775 20 40 20C45.5225 20 50 24.4824 50 30Z" fill="#7F1DE4"/>
</svg>
