<svg width="50" height="50" viewBox="0 0 50 50" fill="none" xmlns="http://www.w3.org/2000/svg">
<g clip-path="url(#clip0_421_104)">
<path fill-rule="evenodd" clip-rule="evenodd" d="M0 0H50V50H0V0Z" fill="#7F1DE4"/>
<path fill-rule="evenodd" clip-rule="evenodd" d="M13.1465 41.7847L16.9714 39.4694C17.7078 40.7797 18.3792 41.8864 19.9906 41.8864C21.5327 41.8864 22.5093 41.2842 22.5093 38.9323V22.9533H27.209V38.9974C27.209 43.864 24.3566 46.0775 20.194 46.0775C16.4342 46.0775 14.2533 44.1325 13.1465 41.7847ZM29.7603 41.2802L33.5851 39.0666C34.5942 40.7105 35.9004 41.919 38.2157 41.919C40.1606 41.919 41.4058 40.9465 41.4058 39.6037C41.4058 37.9924 40.1322 37.4227 37.9837 36.4828L36.8078 35.9782C33.4183 34.5337 31.1681 32.723 31.1681 28.8982C31.1681 25.3744 33.8537 22.6888 38.0488 22.6888C41.0355 22.6888 43.1839 23.7305 44.7261 26.4486L41.068 28.7964C40.2624 27.3519 39.3916 26.7823 38.0488 26.7823C36.6735 26.7823 35.7987 27.653 35.7987 28.7964C35.7987 30.2043 36.6694 30.778 38.6836 31.6488L39.8595 32.1534C43.8553 33.8664 46.1014 35.612 46.1014 39.5386C46.1014 43.7663 42.777 46.0816 38.3133 46.0816C33.9554 46.0816 31.1356 43.9983 29.7603 41.2802Z" fill="white"/>
</g>
<defs>
<clipPath id="clip0_421_104">
<rect width="50" height="50" fill="white"/>
</clipPath>
</defs>
</svg>
