<svg width="500" height="350" viewBox="0 0 500 350" fill="none" xmlns="http://www.w3.org/2000/svg">
<path d="M220.516 64.6016L211.102 63.196" stroke="#011635" stroke-width="1.5" stroke-miterlimit="10" stroke-linecap="round" stroke-linejoin="round"/>
<path d="M440.059 322.796L447.515 328.993" stroke="#011635" stroke-width="1.5" stroke-miterlimit="10" stroke-linecap="round" stroke-linejoin="round"/>
<path d="M295.391 12.5846L299.524 21.5768" stroke="#011635" stroke-width="1.5" stroke-miterlimit="10" stroke-linecap="round" stroke-linejoin="round"/>
<path d="M24.5293 181.508L31.9853 187.706" stroke="#011635" stroke-width="1.5" stroke-miterlimit="10" stroke-linecap="round" stroke-linejoin="round"/>
<path d="M453.236 199.821L462.194 196.471" stroke="#011635" stroke-width="1.5" stroke-miterlimit="10" stroke-linecap="round" stroke-linejoin="round"/>
<path d="M337.15 323.679L339.3 333.405" stroke="#011635" stroke-width="1.5" stroke-miterlimit="10" stroke-linecap="round" stroke-linejoin="round"/>
<path d="M77.1022 305.419L72.9102 314.381" stroke="#011635" stroke-width="1.5" stroke-miterlimit="10" stroke-linecap="round" stroke-linejoin="round"/>
<path d="M464.29 68.0526L460.098 77.0147" stroke="#011635" stroke-width="1.5" stroke-miterlimit="10" stroke-linecap="round" stroke-linejoin="round"/>
<path d="M64.763 137.353C64.763 136.13 63.8183 135.138 62.653 135.138C61.4876 135.138 60.543 136.13 60.543 137.353C60.543 138.577 61.4876 139.569 62.653 139.569C63.8183 139.569 64.763 138.577 64.763 137.353Z" stroke="#011635" stroke-width="1.5" stroke-miterlimit="10" stroke-linecap="round" stroke-linejoin="round"/>
<path d="M488.822 118.173C488.822 116.95 487.877 115.958 486.712 115.958C485.546 115.958 484.602 116.95 484.602 118.173C484.602 119.397 485.546 120.389 486.712 120.389C487.877 120.389 488.822 119.397 488.822 118.173Z" stroke="#011635" stroke-width="1.5" stroke-miterlimit="10" stroke-linecap="round" stroke-linejoin="round"/>
<path d="M93.0852 30.9925C93.0852 29.7689 92.1406 28.777 90.9752 28.777C89.8099 28.777 88.8652 29.7689 88.8652 30.9925C88.8652 32.2161 89.8099 33.208 90.9752 33.208C92.1406 33.208 93.0852 32.2161 93.0852 30.9925Z" stroke="#011635" stroke-width="1.5" stroke-miterlimit="10" stroke-linecap="round" stroke-linejoin="round"/>
<path d="M30.3665 276.614C30.3665 275.39 29.4218 274.399 28.2565 274.399C27.0911 274.399 26.1465 275.39 26.1465 276.614C26.1465 277.838 27.0911 278.83 28.2565 278.83C29.4218 278.83 30.3665 277.838 30.3665 276.614Z" stroke="#011635" stroke-width="1.5" stroke-miterlimit="10" stroke-linecap="round" stroke-linejoin="round"/>
<path d="M425.948 26.5615C425.948 25.3379 425.004 24.346 423.839 24.346C422.673 24.346 421.729 25.3379 421.729 26.5615C421.729 27.7851 422.673 28.777 423.839 28.777C425.004 28.777 425.948 27.7851 425.948 26.5615Z" stroke="#011635" stroke-width="1.5" stroke-miterlimit="10" stroke-linecap="round" stroke-linejoin="round"/>
<path d="M248.167 33.208C248.167 31.9844 247.223 30.9925 246.057 30.9925C244.892 30.9925 243.947 31.9844 243.947 33.208C243.947 34.4316 244.892 35.4235 246.057 35.4235C247.223 35.4228 248.167 34.4316 248.167 33.208Z" stroke="#011635" stroke-width="1.5" stroke-miterlimit="10" stroke-linecap="round" stroke-linejoin="round"/>
<path d="M115.37 330.758C115.37 329.534 114.426 328.542 113.26 328.542C112.095 328.542 111.15 329.534 111.15 330.758C111.15 331.981 112.095 332.973 113.26 332.973C114.426 332.973 115.37 331.981 115.37 330.758Z" stroke="#011635" stroke-width="1.5" stroke-miterlimit="10" stroke-linecap="round" stroke-linejoin="round"/>
<path d="M466.4 260.042C466.4 258.819 465.455 257.827 464.29 257.827C463.124 257.827 462.18 258.819 462.18 260.042C462.18 261.266 463.124 262.258 464.29 262.258C465.455 262.258 466.4 261.266 466.4 260.042Z" stroke="#011635" stroke-width="1.5" stroke-miterlimit="10" stroke-linecap="round" stroke-linejoin="round"/>
<ellipse cx="472.988" cy="301.102" rx="1" ry="1.05" fill="#011635"/>
<ellipse cx="31.9863" cy="118.173" rx="1" ry="1.05" fill="#011635"/>
<ellipse cx="369.756" cy="26.5615" rx="1" ry="1.05" fill="#011635"/>
<ellipse cx="18.8281" cy="325.895" rx="1" ry="1.05" fill="#011635"/>
<ellipse cx="170.434" cy="24.346" rx="1" ry="1.05" fill="#011635"/>
<ellipse cx="478.799" cy="26.5615" rx="1" ry="1.05" fill="#011635"/>
<ellipse cx="256.178" cy="336.438" rx="1" ry="1.05" fill="#011635"/>
<path d="M40.6223 24.6232L35.3477 32.9308" stroke="#011635" stroke-width="1.5" stroke-miterlimit="10" stroke-linecap="round" stroke-linejoin="round"/>
<path d="M110.092 309.155C192.16 350.887 329.153 320.188 380.109 277.796C446.331 222.706 462.303 93.4206 393.649 49.7609C354.557 24.9011 291.363 30.6999 240.625 102.941C193.519 170.011 159.281 137.516 106.141 157.174C38.8914 182.052 39.9567 273.491 110.092 309.155Z" fill="#8791FF"/>
<path d="M146.121 97.7382H377.88C382.299 97.7382 385.88 101.499 385.88 106.138V267.661C385.88 272.301 382.299 276.061 377.88 276.061H146.121C141.703 276.061 138.121 272.301 138.121 267.661V106.138C138.121 101.499 141.702 97.7382 146.121 97.7382Z" fill="white"/>
<path d="M347.023 92.3944C346.169 83.6297 350.164 71.5113 356.027 72.6019C361.89 73.6925 354.572 83.2076 359.436 93.0531L347.023 92.3944Z" fill="#F9CAD2"/>
<path d="M348.641 97.7382C348.641 97.7382 358.117 87.8997 363.04 70.3612C367.963 52.8227 389.765 52.269 393.809 74.4226C397.853 96.5762 378.864 127.681 378.864 127.681L348.641 97.7382Z" fill="#00CFBE"/>
<path d="M380.139 75.5489C380.139 75.5489 381.367 96.6196 363.479 112.439" stroke="#011635" stroke-width="1.5" stroke-miterlimit="10" stroke-linecap="round" stroke-linejoin="round"/>
<path d="M407.436 80.8451C407.436 80.8451 410.601 92.3594 402.426 101.022" stroke="#011635" stroke-width="1.5" stroke-miterlimit="10" stroke-linecap="round" stroke-linejoin="round"/>
<path d="M146.908 265.452C146.908 265.452 148.974 275.838 143.699 284.977" stroke="#011635" stroke-width="1.5" stroke-miterlimit="10" stroke-linecap="round" stroke-linejoin="round"/>
<path d="M136.797 265.452C136.797 265.452 136.503 273.747 132.453 280.885" stroke="#011635" stroke-width="1.5" stroke-miterlimit="10" stroke-linecap="round" stroke-linejoin="round"/>
<path d="M235.33 272.328C248.14 289.518 261.151 288.977 276.799 288.916C292.448 288.854 310.211 293.446 318.077 304.027C325.942 314.608 349.715 317.528 348.642 292.114C347.569 266.7 312.533 243.936 284.292 244.933C256.052 245.93 237.063 241.443 237.063 241.443L235.33 272.328Z" fill="#00CFBE"/>
<path d="M236.229 255.74C280.133 279.53 310.842 263.962 329.645 288.915" stroke="#011635" stroke-width="1.5" stroke-miterlimit="10" stroke-linecap="round" stroke-linejoin="round"/>
<path d="M359.438 291.803C359.438 291.803 366.49 296.885 366.26 309.9" stroke="#011635" stroke-width="1.5" stroke-miterlimit="10" stroke-linecap="round" stroke-linejoin="round"/>
<path d="M148.964 94.5126C143.436 82.5461 144.799 63.7154 152.645 63.9002C160.491 64.085 152.755 84.1399 163.128 92.7584L148.964 94.5126Z" fill="#F9CAD2"/>
<path d="M121.284 118.173C121.284 118.173 90.4262 59.2844 119.965 50.1459C144.798 42.4634 139.57 93.6698 166.427 105L121.284 118.173Z" fill="#00CFBE"/>
<path d="M122.602 65.6537C122.602 65.6537 126.143 91.8701 142.306 112.038" stroke="#011635" stroke-width="1.5" stroke-miterlimit="10" stroke-linecap="round" stroke-linejoin="round"/>
<path d="M104.668 184.688C104.668 184.688 119.625 189.108 132.455 186.504" stroke="#011635" stroke-width="1.5" stroke-miterlimit="10" stroke-linecap="round" stroke-linejoin="round"/>
<path d="M98.3379 101.461C98.3379 101.461 107.041 105.218 111.261 114.652" stroke="#011635" stroke-width="1.5" stroke-miterlimit="10" stroke-linecap="round" stroke-linejoin="round"/>
<path d="M178.207 74.2385C178.207 74.2385 174.208 81.5619 178.207 94.2382" stroke="#011635" stroke-width="1.5" stroke-miterlimit="10" stroke-linecap="round" stroke-linejoin="round"/>
<path d="M137.322 90.0382H369.082C373.5 90.0382 377.082 93.7993 377.082 98.4382V259.961C377.082 264.6 373.5 268.361 369.082 268.361H137.322C132.904 268.361 129.322 264.6 129.322 259.961V98.4382C129.322 93.7993 132.904 90.0382 137.322 90.0382Z" fill="#011635" stroke="#011635" stroke-width="1.5" stroke-miterlimit="10" stroke-linecap="round" stroke-linejoin="round"/>
<path d="M132.121 90.0382H363.88C368.298 90.0382 371.88 93.7993 371.88 98.4382V259.961C371.88 264.6 368.298 268.361 363.88 268.361H132.121C127.703 268.361 124.121 264.6 124.121 259.961V98.4382C124.121 93.7993 127.702 90.0382 132.121 90.0382Z" fill="white" stroke="#011635" stroke-width="1.5" stroke-miterlimit="10" stroke-linecap="round" stroke-linejoin="round"/>
<path d="M132.121 268.362H363.88C368.299 268.362 371.88 264.601 371.88 259.962V251.4H124.121V259.962C124.121 264.601 127.702 268.362 132.121 268.362Z" fill="#F4DC90" stroke="#011635" stroke-width="1.5" stroke-miterlimit="10" stroke-linecap="round" stroke-linejoin="round"/>
<path d="M251.943 259.881C251.943 257.594 250.178 255.74 248 255.74C245.822 255.74 244.057 257.594 244.057 259.881C244.057 262.168 245.822 264.021 248 264.021C250.178 264.021 251.943 262.168 251.943 259.881Z" fill="#D0D0D6" stroke="#011635" stroke-width="1.5" stroke-miterlimit="10" stroke-linecap="round" stroke-linejoin="round"/>
<path d="M363.88 90.0382H132.121C127.703 90.0382 124.121 93.7993 124.121 98.4382H371.88C371.88 93.7993 368.298 90.0382 363.88 90.0382Z" fill="#F4DC90" stroke="#011635" stroke-width="1.5" stroke-miterlimit="10" stroke-linecap="round" stroke-linejoin="round"/>
<path d="M230.214 112.438H140.631V176.331H230.214V112.438Z" fill="#F9CAD2"/>
<path d="M230.214 174.042H140.631V176.331H230.214V174.042Z" fill="#F99AAA"/>
<path d="M148.964 116.873H144.854V121.189H148.964V116.873Z" stroke="#011635" stroke-width="1.5" stroke-miterlimit="10" stroke-linecap="round" stroke-linejoin="round"/>
<path d="M157.184 121.188H153.074" stroke="#011635" stroke-width="1.5" stroke-miterlimit="10" stroke-linecap="round" stroke-linejoin="round"/>
<path d="M155.842 158.226L167.899 133.706L179.68 152.348L193.584 137.637L202.512 148.618L216.666 155.733" stroke="#011635" stroke-width="1.5" stroke-miterlimit="10" stroke-linecap="round" stroke-linejoin="round"/>
<path d="M157.316 158.226C157.316 157.371 156.656 156.679 155.842 156.679C155.028 156.679 154.369 157.372 154.369 158.226C154.369 159.081 155.029 159.773 155.842 159.773C156.656 159.773 157.316 159.081 157.316 158.226Z" fill="white" stroke="#011635" stroke-width="1.5" stroke-miterlimit="10" stroke-linecap="round" stroke-linejoin="round"/>
<path d="M195.058 137.637C195.058 136.782 194.398 136.09 193.585 136.09C192.771 136.09 192.111 136.783 192.111 137.637C192.111 138.491 192.771 139.184 193.585 139.184C194.398 139.184 195.058 138.491 195.058 137.637Z" fill="white" stroke="#011635" stroke-width="1.5" stroke-miterlimit="10" stroke-linecap="round" stroke-linejoin="round"/>
<path d="M179.68 153.895C180.494 153.895 181.154 153.202 181.154 152.348C181.154 151.494 180.494 150.801 179.68 150.801C178.867 150.801 178.207 151.494 178.207 152.348C178.207 153.202 178.867 153.895 179.68 153.895Z" fill="white" stroke="#011635" stroke-width="1.5" stroke-miterlimit="10" stroke-linecap="round" stroke-linejoin="round"/>
<path d="M203.988 148.618C203.988 147.764 203.328 147.071 202.514 147.071C201.7 147.071 201.041 147.764 201.041 148.618C201.041 149.473 201.701 150.165 202.514 150.165C203.328 150.166 203.988 149.473 203.988 148.618Z" fill="white" stroke="#011635" stroke-width="1.5" stroke-miterlimit="10" stroke-linecap="round" stroke-linejoin="round"/>
<path d="M169.372 133.706C169.372 132.852 168.712 132.159 167.899 132.159C167.085 132.159 166.426 132.852 166.426 133.706C166.426 134.56 167.086 135.253 167.899 135.253C168.712 135.253 169.372 134.56 169.372 133.706Z" fill="white" stroke="#011635" stroke-width="1.5" stroke-miterlimit="10" stroke-linecap="round" stroke-linejoin="round"/>
<path d="M218.142 155.733C218.142 154.879 217.482 154.186 216.669 154.186C215.855 154.186 215.195 154.879 215.195 155.733C215.195 156.588 215.855 157.28 216.669 157.28C217.482 157.281 218.142 156.588 218.142 155.733Z" fill="white" stroke="#011635" stroke-width="1.5" stroke-miterlimit="10" stroke-linecap="round" stroke-linejoin="round"/>
<path d="M155.842 166.016H216.666" stroke="#011635" stroke-width="1.5" stroke-miterlimit="10" stroke-linecap="round" stroke-linejoin="round"/>
<path d="M225.721 116.873H202.369V121.189H225.721V116.873Z" fill="white"/>
<path d="M225.721 123.243H213.809V127.558H225.721V123.243Z" fill="#8791FF"/>
<path d="M230.214 182.069H140.631V237.4H230.214V182.069Z" fill="#F9CAD2"/>
<path d="M230.214 235.111H140.631V237.399H230.214V235.111Z" fill="#F99AAA"/>
<path d="M148.964 186.504H144.854V190.819H148.964V186.504Z" stroke="#011635" stroke-width="1.5" stroke-miterlimit="10" stroke-linecap="round" stroke-linejoin="round"/>
<path d="M157.184 190.819H153.074" stroke="#011635" stroke-width="1.5" stroke-miterlimit="10" stroke-linecap="round" stroke-linejoin="round"/>
<path d="M225.721 196.599H148.965V199.693H225.721V196.599Z" fill="#8791FF"/>
<path d="M225.721 203.925H148.965V207.02H225.721V203.925Z" fill="white"/>
<path d="M196.53 211.252H148.965V214.347H196.53V211.252Z" fill="white"/>
<path d="M183.377 218.579H148.965V221.674H183.377V218.579Z" fill="#8791FF"/>
<path d="M206.391 218.579H187.059V221.674H206.391V218.579Z" fill="#8791FF"/>
<path d="M169.899 225.906H148.965V229.001H169.899V225.906Z" fill="white"/>
<path d="M355.37 112.438H239.678V128.258H355.37V112.438Z" fill="#F9CAD2"/>
<path d="M355.37 128.258H239.678V130.546H355.37V128.258Z" fill="#F99AAA"/>
<path d="M243.9 116.873H248.01" stroke="#011635" stroke-width="1.5" stroke-miterlimit="10" stroke-linecap="round" stroke-linejoin="round"/>
<path d="M252.119 116.873H256.229" stroke="#011635" stroke-width="1.5" stroke-miterlimit="10" stroke-linecap="round" stroke-linejoin="round"/>
<path d="M248.01 115.2H243.9V116.873H248.01V115.2Z" stroke="#011635" stroke-width="1.5" stroke-miterlimit="10" stroke-linecap="round" stroke-linejoin="round"/>
<path d="M289.107 120.657H248.012V123.752H289.107V120.657Z" fill="#8791FF"/>
<path d="M308.865 120.657H291.615V123.752H308.865V120.657Z" fill="white"/>
<path d="M355.37 133.755H239.678V149.575H355.37V133.755Z" fill="#F9CAD2"/>
<path d="M355.37 149.575H239.678V151.863H355.37V149.575Z" fill="#F99AAA"/>
<path d="M243.9 138.19H248.01" stroke="#011635" stroke-width="1.5" stroke-miterlimit="10" stroke-linecap="round" stroke-linejoin="round"/>
<path d="M252.119 138.19H256.229" stroke="#011635" stroke-width="1.5" stroke-miterlimit="10" stroke-linecap="round" stroke-linejoin="round"/>
<path d="M248.01 136.517H243.9V138.19H248.01V136.517Z" stroke="#011635" stroke-width="1.5" stroke-miterlimit="10" stroke-linecap="round" stroke-linejoin="round"/>
<path d="M266.799 141.973H248.012V145.068H266.799V141.973Z" fill="#8791FF"/>
<path d="M344.631 141.973H289.773V145.068H344.631V141.973Z" fill="#8791FF"/>
<path d="M287.173 141.973H269.924V145.068H287.173V141.973Z" fill="white"/>
<path d="M355.37 155.072H239.678V170.891H355.37V155.072Z" fill="#F9CAD2"/>
<path d="M355.37 170.891H239.678V173.179H355.37V170.891Z" fill="#F99AAA"/>
<path d="M243.9 159.507H248.01" stroke="#011635" stroke-width="1.5" stroke-miterlimit="10" stroke-linecap="round" stroke-linejoin="round"/>
<path d="M252.119 159.507H256.229" stroke="#011635" stroke-width="1.5" stroke-miterlimit="10" stroke-linecap="round" stroke-linejoin="round"/>
<path d="M248.01 157.833H243.9V159.506H248.01V157.833Z" stroke="#011635" stroke-width="1.5" stroke-miterlimit="10" stroke-linecap="round" stroke-linejoin="round"/>
<path d="M289.107 163.29H248.012V166.385H289.107V163.29Z" fill="#8791FF"/>
<path d="M355.37 176.389H239.678V192.208H355.37V176.389Z" fill="#F9CAD2"/>
<path d="M355.37 192.207H239.678V194.496H355.37V192.207Z" fill="#F99AAA"/>
<path d="M243.9 180.823H248.01" stroke="#011635" stroke-width="1.5" stroke-miterlimit="10" stroke-linecap="round" stroke-linejoin="round"/>
<path d="M252.119 180.823H256.229" stroke="#011635" stroke-width="1.5" stroke-miterlimit="10" stroke-linecap="round" stroke-linejoin="round"/>
<path d="M248.01 179.15H243.9V180.823H248.01V179.15Z" stroke="#011635" stroke-width="1.5" stroke-miterlimit="10" stroke-linecap="round" stroke-linejoin="round"/>
<path d="M276.799 184.607H248.012V187.702H276.799V184.607Z" fill="#8791FF"/>
<path d="M328.594 184.607H280.133V187.702H328.594V184.607Z" fill="white"/>
<path d="M340.212 184.607H332.234V187.702H340.212V184.607Z" fill="white"/>
<path d="M355.37 201.258H239.678V237.4H355.37V201.258Z" fill="#F9CAD2"/>
<path d="M355.37 235.111H239.678V237.399H355.37V235.111Z" fill="#F99AAA"/>
<path d="M248.01 205.692H243.9V210.008H248.01V205.692Z" stroke="#011635" stroke-width="1.5" stroke-miterlimit="10" stroke-linecap="round" stroke-linejoin="round"/>
<path d="M256.229 210.008H252.119" stroke="#011635" stroke-width="1.5" stroke-miterlimit="10" stroke-linecap="round" stroke-linejoin="round"/>
<path d="M278.231 210.605H261.615V228.052H278.231V210.605Z" fill="#8791FF"/>
<path d="M265.809 223.65L274.039 215.008" stroke="#011635" stroke-width="1.5" stroke-miterlimit="10" stroke-linecap="round" stroke-linejoin="round"/>
<path d="M274.039 223.65L265.809 215.008" stroke="#011635" stroke-width="1.5" stroke-miterlimit="10" stroke-linecap="round" stroke-linejoin="round"/>
<path d="M300.906 210.605H284.291V228.052H300.906V210.605Z" fill="#8791FF"/>
<path d="M288.484 223.65L296.715 215.008" stroke="#011635" stroke-width="1.5" stroke-miterlimit="10" stroke-linecap="round" stroke-linejoin="round"/>
<path d="M323.582 210.605H306.967V228.052H323.582V210.605Z" fill="#8791FF"/>
<path d="M319.384 215.414H311.928V223.243H319.384V215.414Z" stroke="#011635" stroke-width="1.5" stroke-miterlimit="10" stroke-linecap="round" stroke-linejoin="round"/>
<path d="M346.258 210.605H329.643V228.052H346.258V210.605Z" fill="#8791FF"/>
<ellipse cx="334.223" cy="215.414" rx="0.5" ry="0.525" fill="#011635"/>
<ellipse cx="341.678" cy="215.414" rx="0.5" ry="0.525" fill="#011635"/>
<ellipse cx="334.223" cy="223.243" rx="0.5" ry="0.525" fill="#011635"/>
<ellipse cx="341.678" cy="223.243" rx="0.5" ry="0.525" fill="#011635"/>
<g opacity="0.45">
<path d="M423.815 300.754H327.542C324.892 300.754 322.742 298.498 322.742 295.714V194.628C322.742 191.845 324.892 189.588 327.542 189.588H423.815C426.466 189.588 428.615 191.845 428.615 194.628V295.714C428.615 298.498 426.466 300.754 423.815 300.754Z" fill="#8791FF"/>
<path d="M423.815 300.754H327.542C324.892 300.754 322.742 298.498 322.742 295.714V194.628C322.742 191.845 324.892 189.588 327.542 189.588H423.815C426.466 189.588 428.615 191.845 428.615 194.628V295.714C428.615 298.498 426.466 300.754 423.815 300.754Z" stroke="#8791FF" stroke-width="1.5" stroke-miterlimit="10" stroke-linecap="round" stroke-linejoin="round"/>
</g>
<path d="M419.149 295.854H322.876C320.225 295.854 318.076 293.597 318.076 290.814V189.728C318.076 186.945 320.225 184.688 322.876 184.688H419.149C421.8 184.688 423.949 186.945 423.949 189.728V290.814C423.949 293.597 421.8 295.854 419.149 295.854Z" fill="white"/>
<path d="M419.149 295.854H322.876C320.225 295.854 318.076 293.597 318.076 290.814V189.728C318.076 186.945 320.225 184.688 322.876 184.688H419.149C421.8 184.688 423.949 186.945 423.949 189.728V290.814C423.949 293.597 421.8 295.854 419.149 295.854Z" stroke="#011635" stroke-width="1.5" stroke-miterlimit="10" stroke-linecap="round" stroke-linejoin="round"/>
<path d="M324.299 194.708L328.088 190.73" stroke="#011635" stroke-width="1.5" stroke-miterlimit="10" stroke-linecap="round" stroke-linejoin="round"/>
<path d="M324.299 190.73L328.088 194.708" stroke="#011635" stroke-width="1.5" stroke-miterlimit="10" stroke-linecap="round" stroke-linejoin="round"/>
<path d="M338.704 221.969C334.26 221.969 330.656 225.752 330.656 230.419V232.464H346.753V230.419C346.752 225.752 343.149 221.969 338.704 221.969Z" fill="#8791FF"/>
<path d="M343.271 215.488C343.271 212.839 341.226 210.692 338.703 210.692C336.18 210.692 334.135 212.839 334.135 215.488C334.135 218.137 336.18 220.284 338.703 220.284C341.226 220.284 343.271 218.137 343.271 215.488Z" fill="#8791FF"/>
<path d="M349.32 202.809H328.088V232.465H349.32V202.809Z" stroke="#011635" stroke-width="1.5" stroke-miterlimit="10" stroke-linecap="round" stroke-linejoin="round"/>
<path d="M354.584 226.096H377.936V221.78H354.584V226.096Z" fill="#8791FF"/>
<path d="M354.584 232.465H366.496V228.149H354.584V232.465Z" fill="#8791FF"/>
<path d="M413.938 229.832C413.938 228.378 412.816 227.2 411.431 227.2C410.046 227.2 408.924 228.378 408.924 229.832C408.924 231.286 410.046 232.465 411.431 232.465C412.816 232.465 413.938 231.286 413.938 229.832Z" stroke="#011635" stroke-width="1.5" stroke-miterlimit="10" stroke-linecap="round" stroke-linejoin="round"/>
<path d="M413.939 239.371H328.088V257.094H413.939V239.371Z" fill="#F9CAD2"/>
<path d="M409.391 243.386H332.635V246.481H409.391V243.386Z" fill="#8791FF"/>
<path d="M361.649 250.713H332.635V253.808H361.649V250.713Z" fill="white"/>
<path d="M413.939 264H328.088V281.723H413.939V264Z" fill="#F9CAD2"/>
<path d="M367.756 268.015H332.635V271.11H367.756V268.015Z" fill="#8791FF"/>
<path d="M409.392 268.015H370.354V271.11H409.392V268.015Z" fill="white"/>
<path d="M376.683 275.342H348.643V278.437H376.683V275.342Z" fill="white"/>
<path d="M346.045 275.342H332.635V278.437H346.045V275.342Z" fill="white"/>
<path d="M321.905 243.433C311.705 243.433 312.252 234.444 300.959 234.444C297.92 234.444 295.457 231.857 295.457 228.666V226.364" stroke="#011635" stroke-width="1.5" stroke-miterlimit="10" stroke-linecap="round" stroke-linejoin="round"/>
<path d="M325.696 243.433C325.696 242.334 324.848 241.443 323.801 241.443C322.754 241.443 321.906 242.334 321.906 243.433C321.906 244.532 322.754 245.422 323.801 245.422C324.847 245.422 325.696 244.532 325.696 243.433Z" fill="#011635" stroke="#011635" stroke-width="1.5" stroke-miterlimit="10" stroke-linecap="round" stroke-linejoin="round"/>
<path d="M297.352 224.374C297.352 223.276 296.504 222.385 295.457 222.385C294.411 222.385 293.562 223.275 293.562 224.374C293.562 225.473 294.411 226.364 295.457 226.364C296.504 226.364 297.352 225.473 297.352 224.374Z" fill="#011635" stroke="#011635" stroke-width="1.5" stroke-miterlimit="10" stroke-linecap="round" stroke-linejoin="round"/>
<g opacity="0.45">
<path d="M437.924 177.471H373.589C370.938 177.471 368.789 175.214 368.789 172.431V104.879C368.789 102.096 370.938 99.8389 373.589 99.8389H437.924C440.575 99.8389 442.724 102.096 442.724 104.879V172.431C442.724 175.215 440.576 177.471 437.924 177.471Z" fill="#8791FF"/>
<path d="M437.924 177.471H373.589C370.938 177.471 368.789 175.214 368.789 172.431V104.879C368.789 102.096 370.938 99.8389 373.589 99.8389H437.924C440.575 99.8389 442.724 102.096 442.724 104.879V172.431C442.724 175.215 440.576 177.471 437.924 177.471Z" stroke="#8791FF" stroke-width="1.5" stroke-miterlimit="10" stroke-linecap="round" stroke-linejoin="round"/>
</g>
<path d="M433.258 172.571H368.923C366.272 172.571 364.123 170.314 364.123 167.531V99.9789C364.123 97.1957 366.272 94.9389 368.923 94.9389H433.258C435.909 94.9389 438.058 97.1957 438.058 99.9789V167.531C438.058 170.315 435.91 172.571 433.258 172.571Z" fill="white"/>
<path d="M433.258 172.571H368.923C366.272 172.571 364.123 170.314 364.123 167.531V99.9789C364.123 97.1957 366.272 94.9389 368.923 94.9389H433.258C435.909 94.9389 438.058 97.1957 438.058 99.9789V167.531C438.058 170.315 435.91 172.571 433.258 172.571Z" stroke="#011635" stroke-width="1.5" stroke-miterlimit="10" stroke-linecap="round" stroke-linejoin="round"/>
<path d="M370.346 104.959L374.134 100.981" stroke="#011635" stroke-width="1.5" stroke-miterlimit="10" stroke-linecap="round" stroke-linejoin="round"/>
<path d="M370.346 100.981L374.134 104.959" stroke="#011635" stroke-width="1.5" stroke-miterlimit="10" stroke-linecap="round" stroke-linejoin="round"/>
<path d="M348.172 116.704C359.465 116.704 358.919 125.693 369.118 125.693" stroke="#011635" stroke-width="1.5" stroke-miterlimit="10" stroke-linecap="round" stroke-linejoin="round"/>
<path d="M372.906 125.693C372.906 124.594 372.059 123.703 371.012 123.703C369.966 123.703 369.117 124.594 369.117 125.693C369.117 126.792 369.965 127.682 371.012 127.682C372.059 127.682 372.906 126.792 372.906 125.693Z" fill="#011635" stroke="#011635" stroke-width="1.5" stroke-miterlimit="10" stroke-linecap="round" stroke-linejoin="round"/>
<path d="M348.172 116.704C348.172 115.605 347.324 114.715 346.278 114.715C345.231 114.715 344.383 115.605 344.383 116.704C344.383 117.803 345.231 118.693 346.278 118.693C347.324 118.693 348.172 117.803 348.172 116.704Z" fill="#011635" stroke="#011635" stroke-width="1.5" stroke-miterlimit="10" stroke-linecap="round" stroke-linejoin="round"/>
<path d="M372.906 138.021C372.906 136.922 372.059 136.032 371.012 136.032C369.966 136.032 369.117 136.922 369.117 138.021C369.117 139.119 369.965 140.01 371.012 140.01C372.059 140.01 372.906 139.119 372.906 138.021Z" fill="#011635" stroke="#011635" stroke-width="1.5" stroke-miterlimit="10" stroke-linecap="round" stroke-linejoin="round"/>
<path d="M348.172 138.021C348.172 136.922 347.324 136.032 346.278 136.032C345.231 136.032 344.383 136.922 344.383 138.021C344.383 139.119 345.231 140.01 346.278 140.01C347.324 140.01 348.172 139.119 348.172 138.021Z" fill="#011635" stroke="#011635" stroke-width="1.5" stroke-miterlimit="10" stroke-linecap="round" stroke-linejoin="round"/>
<path d="M348.172 138.021H369.118" stroke="#011635" stroke-width="1.5" stroke-miterlimit="10" stroke-linecap="round" stroke-linejoin="round"/>
<path d="M348.172 159.337C359.465 159.337 358.919 150.349 369.118 150.349" stroke="#011635" stroke-width="1.5" stroke-miterlimit="10" stroke-linecap="round" stroke-linejoin="round"/>
<path d="M372.906 150.349C372.906 151.448 372.059 152.338 371.012 152.338C369.966 152.338 369.117 151.448 369.117 150.349C369.117 149.25 369.965 148.359 371.012 148.359C372.059 148.36 372.906 149.25 372.906 150.349Z" fill="#011635" stroke="#011635" stroke-width="1.5" stroke-miterlimit="10" stroke-linecap="round" stroke-linejoin="round"/>
<path d="M348.172 159.337C348.172 160.436 347.324 161.327 346.278 161.327C345.231 161.327 344.383 160.436 344.383 159.337C344.383 158.238 345.231 157.348 346.278 157.348C347.324 157.348 348.172 158.239 348.172 159.337Z" fill="#011635" stroke="#011635" stroke-width="1.5" stroke-miterlimit="10" stroke-linecap="round" stroke-linejoin="round"/>
<g opacity="0.45">
<path d="M239.888 310.122H165.495C162.844 310.122 160.695 307.865 160.695 305.082V267.361C160.695 264.577 162.844 262.321 165.495 262.321H239.888C242.539 262.321 244.688 264.578 244.688 267.361V305.082C244.688 307.865 242.539 310.122 239.888 310.122Z" fill="#8791FF"/>
<path d="M239.888 310.122H165.495C162.844 310.122 160.695 307.865 160.695 305.082V267.361C160.695 264.577 162.844 262.321 165.495 262.321H239.888C242.539 262.321 244.688 264.578 244.688 267.361V305.082C244.688 307.865 242.539 310.122 239.888 310.122Z" stroke="#8791FF" stroke-width="1.5" stroke-miterlimit="10" stroke-linecap="round" stroke-linejoin="round"/>
</g>
<path d="M235.222 305.222H160.829C158.178 305.222 156.029 302.965 156.029 300.182V262.461C156.029 259.677 158.178 257.421 160.829 257.421H235.222C237.873 257.421 240.022 259.678 240.022 262.461V300.182C240.022 302.965 237.873 305.222 235.222 305.222Z" fill="white"/>
<path d="M235.222 305.222H160.829C158.178 305.222 156.029 302.965 156.029 300.182V262.461C156.029 259.677 158.178 257.421 160.829 257.421H235.222C237.873 257.421 240.022 259.678 240.022 262.461V300.182C240.022 302.965 237.873 305.222 235.222 305.222Z" stroke="#011635" stroke-width="1.5" stroke-miterlimit="10" stroke-linecap="round" stroke-linejoin="round"/>
<path d="M162.252 267.441L166.041 263.462" stroke="#011635" stroke-width="1.5" stroke-miterlimit="10" stroke-linecap="round" stroke-linejoin="round"/>
<path d="M162.252 263.462L166.041 267.441" stroke="#011635" stroke-width="1.5" stroke-miterlimit="10" stroke-linecap="round" stroke-linejoin="round"/>
<path d="M198.251 260.042C198.251 249.332 189.691 249.906 189.691 238.049C189.691 234.858 187.227 232.272 184.189 232.272H181.996" stroke="#011635" stroke-width="1.5" stroke-miterlimit="10" stroke-linecap="round" stroke-linejoin="round"/>
<path d="M198.252 264.021C197.205 264.021 196.357 263.131 196.357 262.032C196.357 260.933 197.205 260.042 198.252 260.042C199.298 260.042 200.147 260.933 200.147 262.032C200.147 263.131 199.299 264.021 198.252 264.021Z" fill="#011635" stroke="#011635" stroke-width="1.5" stroke-miterlimit="10" stroke-linecap="round" stroke-linejoin="round"/>
<path d="M180.102 234.261C179.056 234.261 178.207 233.371 178.207 232.272C178.207 231.173 179.055 230.282 180.102 230.282C181.148 230.282 181.996 231.173 181.996 232.272C181.996 233.37 181.148 234.261 180.102 234.261Z" fill="#011635" stroke="#011635" stroke-width="1.5" stroke-miterlimit="10" stroke-linecap="round" stroke-linejoin="round"/>
<g opacity="0.45">
<path d="M302.579 318.292H263.216C260.565 318.292 258.416 316.035 258.416 313.252V290.826C258.416 288.042 260.565 285.786 263.216 285.786H302.579C305.23 285.786 307.379 288.042 307.379 290.826V313.252C307.379 316.035 305.23 318.292 302.579 318.292Z" fill="#8791FF"/>
<path d="M302.579 318.292H263.216C260.565 318.292 258.416 316.035 258.416 313.252V290.826C258.416 288.042 260.565 285.786 263.216 285.786H302.579C305.23 285.786 307.379 288.042 307.379 290.826V313.252C307.379 316.035 305.23 318.292 302.579 318.292Z" stroke="#8791FF" stroke-width="1.5" stroke-miterlimit="10" stroke-linecap="round" stroke-linejoin="round"/>
</g>
<path d="M297.913 313.392H258.55C255.899 313.392 253.75 311.135 253.75 308.352V285.925C253.75 283.142 255.899 280.885 258.55 280.885H297.913C300.564 280.885 302.713 283.142 302.713 285.925V308.352C302.713 311.135 300.564 313.392 297.913 313.392Z" fill="white"/>
<path d="M297.913 313.392H258.55C255.899 313.392 253.75 311.135 253.75 308.352V285.925C253.75 283.142 255.899 280.885 258.55 280.885H297.913C300.564 280.885 302.713 283.142 302.713 285.925V308.352C302.713 311.135 300.564 313.392 297.913 313.392Z" stroke="#011635" stroke-width="1.5" stroke-miterlimit="10" stroke-linecap="round" stroke-linejoin="round"/>
<path d="M259.971 290.905L263.76 286.926" stroke="#011635" stroke-width="1.5" stroke-miterlimit="10" stroke-linecap="round" stroke-linejoin="round"/>
<path d="M259.971 286.926L263.76 290.905" stroke="#011635" stroke-width="1.5" stroke-miterlimit="10" stroke-linecap="round" stroke-linejoin="round"/>
<path d="M271.665 304.027C271.665 302.997 270.871 302.163 269.889 302.163C268.908 302.163 268.113 302.997 268.113 304.027C268.113 305.057 268.909 305.892 269.889 305.892C270.87 305.892 271.665 305.057 271.665 304.027Z" fill="#011635" stroke="#011635" stroke-width="1.5" stroke-miterlimit="10" stroke-linecap="round" stroke-linejoin="round"/>
<path d="M290.226 290.25C290.226 289.22 289.43 288.385 288.45 288.385C287.469 288.385 286.674 289.22 286.674 290.25C286.674 291.28 287.469 292.115 288.45 292.115C289.43 292.114 290.226 291.28 290.226 290.25Z" fill="#011635" stroke="#011635" stroke-width="1.5" stroke-miterlimit="10" stroke-linecap="round" stroke-linejoin="round"/>
<path d="M269.889 304.027C269.889 304.027 285.349 308.319 288.449 290.25" stroke="#011635" stroke-width="1.5" stroke-miterlimit="10" stroke-linecap="round" stroke-linejoin="round"/>
<path d="M235.33 290.124C246.623 290.124 246.076 299.113 256.276 299.113" stroke="#011635" stroke-width="1.5" stroke-miterlimit="10" stroke-linecap="round" stroke-linejoin="round"/>
<path d="M260.065 299.113C260.065 298.014 259.217 297.123 258.17 297.123C257.124 297.123 256.275 298.014 256.275 299.113C256.275 300.211 257.123 301.102 258.17 301.102C259.217 301.102 260.065 300.212 260.065 299.113Z" fill="#011635" stroke="#011635" stroke-width="1.5" stroke-miterlimit="10" stroke-linecap="round" stroke-linejoin="round"/>
<path d="M235.33 290.124C235.33 289.026 234.482 288.135 233.436 288.135C232.39 288.135 231.541 289.025 231.541 290.124C231.541 291.223 232.389 292.113 233.436 292.113C234.482 292.113 235.33 291.223 235.33 290.124Z" fill="#011635" stroke="#011635" stroke-width="1.5" stroke-miterlimit="10" stroke-linecap="round" stroke-linejoin="round"/>
<g opacity="0.45">
<path d="M132.545 276.919H96.356C93.5347 276.919 91.248 274.518 91.248 271.555V204.062C91.248 201.1 93.5354 198.698 96.356 198.698H132.545C135.366 198.698 137.653 201.1 137.653 204.062V271.555C137.653 274.518 135.366 276.919 132.545 276.919Z" fill="#8791FF"/>
<path d="M132.545 276.919H96.356C93.5347 276.919 91.248 274.518 91.248 271.555V204.062C91.248 201.1 93.5354 198.698 96.356 198.698H132.545C135.366 198.698 137.653 201.1 137.653 204.062V271.555C137.653 274.518 135.366 276.919 132.545 276.919Z" stroke="#8791FF" stroke-width="1.5" stroke-miterlimit="10" stroke-linecap="round" stroke-linejoin="round"/>
</g>
<path d="M127.879 272.019H91.69C88.8687 272.019 86.582 269.618 86.582 266.655V199.162C86.582 196.199 88.8694 193.798 91.69 193.798H127.879C130.7 193.798 132.987 196.199 132.987 199.162V266.655C132.987 269.618 130.7 272.019 127.879 272.019Z" fill="white"/>
<path d="M127.879 272.019H91.69C88.8687 272.019 86.582 269.618 86.582 266.655V199.162C86.582 196.199 88.8694 193.798 91.69 193.798H127.879C130.7 193.798 132.987 196.199 132.987 199.162V266.655C132.987 269.618 130.7 272.019 127.879 272.019Z" stroke="#011635" stroke-width="1.5" stroke-miterlimit="10" stroke-linecap="round" stroke-linejoin="round"/>
<path d="M92.8047 203.819L96.5934 199.84" stroke="#011635" stroke-width="1.5" stroke-miterlimit="10" stroke-linecap="round" stroke-linejoin="round"/>
<path d="M92.8047 199.84L96.5934 203.819" stroke="#011635" stroke-width="1.5" stroke-miterlimit="10" stroke-linecap="round" stroke-linejoin="round"/>
<path d="M125.328 223.098C125.322 222.958 125.263 222.826 125.164 222.732C125.064 222.638 124.935 222.587 124.8 222.599C115.196 223.195 110.27 214.182 110.22 214.091C110.043 213.76 109.525 213.76 109.348 214.091C109.299 214.182 104.364 223.19 94.7675 222.599C94.6349 222.588 94.5035 222.639 94.4042 222.732C94.3049 222.827 94.2455 222.958 94.2395 223.098C94.2289 223.338 93.3549 247.195 109.707 249.867C109.732 249.871 109.758 249.873 109.784 249.873C109.81 249.873 109.835 249.871 109.86 249.867C126.212 247.195 125.339 223.338 125.328 223.098Z" fill="#8791FF"/>
<path d="M148.856 204.798C137.563 204.798 138.11 213.787 127.91 213.787" stroke="#011635" stroke-width="1.5" stroke-miterlimit="10" stroke-linecap="round" stroke-linejoin="round"/>
<path d="M124.121 213.786C124.121 212.688 124.969 211.797 126.016 211.797C127.062 211.797 127.91 212.687 127.91 213.786C127.91 214.885 127.062 215.776 126.016 215.776C124.969 215.776 124.121 214.885 124.121 213.786Z" fill="#011635" stroke="#011635" stroke-width="1.5" stroke-miterlimit="10" stroke-linecap="round" stroke-linejoin="round"/>
<path d="M148.855 204.798C148.855 203.699 149.703 202.809 150.75 202.809C151.797 202.809 152.645 203.699 152.645 204.798C152.645 205.897 151.797 206.788 150.75 206.788C149.703 206.787 148.855 205.897 148.855 204.798Z" fill="#011635" stroke="#011635" stroke-width="1.5" stroke-miterlimit="10" stroke-linecap="round" stroke-linejoin="round"/>
<g opacity="0.45">
<path d="M132.853 179.991H96.048C93.3967 179.991 91.248 177.734 91.248 174.951V118.551C91.248 115.767 93.3974 113.511 96.048 113.511H132.853C135.505 113.511 137.653 115.767 137.653 118.551V174.951C137.653 177.734 135.504 179.991 132.853 179.991Z" fill="#8791FF"/>
<path d="M132.853 179.991H96.048C93.3967 179.991 91.248 177.734 91.248 174.951V118.551C91.248 115.767 93.3974 113.511 96.048 113.511H132.853C135.505 113.511 137.653 115.767 137.653 118.551V174.951C137.653 177.734 135.504 179.991 132.853 179.991Z" stroke="#8791FF" stroke-width="1.5" stroke-miterlimit="10" stroke-linecap="round" stroke-linejoin="round"/>
</g>
<path d="M128.187 175.091H91.382C88.7307 175.091 86.582 172.834 86.582 170.051V113.651C86.582 110.867 88.7314 108.611 91.382 108.611H128.187C130.839 108.611 132.987 110.867 132.987 113.651V170.051C132.987 172.834 130.838 175.091 128.187 175.091Z" fill="white"/>
<path d="M128.187 175.091H91.382C88.7307 175.091 86.582 172.834 86.582 170.051V113.651C86.582 110.867 88.7314 108.611 91.382 108.611H128.187C130.839 108.611 132.987 110.867 132.987 113.651V170.051C132.987 172.834 130.838 175.091 128.187 175.091Z" stroke="#011635" stroke-width="1.5" stroke-miterlimit="10" stroke-linecap="round" stroke-linejoin="round"/>
<path d="M92.8047 118.63L96.5934 114.652" stroke="#011635" stroke-width="1.5" stroke-miterlimit="10" stroke-linecap="round" stroke-linejoin="round"/>
<path d="M92.8047 114.652L96.5934 118.63" stroke="#011635" stroke-width="1.5" stroke-miterlimit="10" stroke-linecap="round" stroke-linejoin="round"/>
<path d="M94.9959 150.646V148.601L111.462 140.214V143.487L98.8311 149.572L98.9334 149.368V149.879L98.8311 149.674L111.462 155.76V159.032L94.9959 150.646ZM127.113 132.441L118.675 163.788H115.914L124.351 132.441H127.113ZM111.462 194.646L94.9959 203.032V199.76L107.627 193.674L107.524 193.879V193.368L107.627 193.572L94.9959 187.487V184.214L111.462 192.601V194.646Z" fill="#011635"/>
<path d="M148.856 133.896C137.563 133.896 138.11 124.907 127.91 124.907" stroke="#011635" stroke-width="1.5" stroke-miterlimit="10" stroke-linecap="round" stroke-linejoin="round"/>
<path d="M124.121 124.907C124.121 126.006 124.969 126.897 126.016 126.897C127.062 126.897 127.91 126.006 127.91 124.907C127.91 123.808 127.062 122.918 126.016 122.918C124.969 122.919 124.121 123.809 124.121 124.907Z" fill="#011635" stroke="#011635" stroke-width="1.5" stroke-miterlimit="10" stroke-linecap="round" stroke-linejoin="round"/>
<path d="M148.855 133.896C148.855 134.994 149.703 135.885 150.75 135.885C151.797 135.885 152.645 134.995 152.645 133.896C152.645 132.797 151.797 131.907 150.75 131.907C149.703 131.907 148.855 132.798 148.855 133.896Z" fill="#011635" stroke="#011635" stroke-width="1.5" stroke-miterlimit="10" stroke-linecap="round" stroke-linejoin="round"/>
<g opacity="0.45">
<path d="M208.294 124.124H168.931C166.28 124.124 164.131 121.867 164.131 119.084V96.6574C164.131 93.8735 166.28 91.6174 168.931 91.6174H208.294C210.945 91.6174 213.094 93.8735 213.094 96.6574V119.084C213.094 121.867 210.946 124.124 208.294 124.124Z" fill="#8791FF"/>
<path d="M208.294 124.124H168.931C166.28 124.124 164.131 121.867 164.131 119.084V96.6574C164.131 93.8735 166.28 91.6174 168.931 91.6174H208.294C210.945 91.6174 213.094 93.8735 213.094 96.6574V119.084C213.094 121.867 210.946 124.124 208.294 124.124Z" stroke="#8791FF" stroke-width="1.5" stroke-miterlimit="10" stroke-linecap="round" stroke-linejoin="round"/>
</g>
<path d="M203.628 119.224H164.265C161.614 119.224 159.465 116.967 159.465 114.184V91.7574C159.465 88.9735 161.614 86.7174 164.265 86.7174H203.628C206.279 86.7174 208.428 88.9735 208.428 91.7574V114.184C208.428 116.967 206.279 119.224 203.628 119.224Z" fill="white"/>
<path d="M203.628 119.224H164.265C161.614 119.224 159.465 116.967 159.465 114.184V91.7574C159.465 88.9735 161.614 86.7174 164.265 86.7174H203.628C206.279 86.7174 208.428 88.9735 208.428 91.7574V114.184C208.428 116.967 206.279 119.224 203.628 119.224Z" stroke="#011635" stroke-width="1.5" stroke-miterlimit="10" stroke-linecap="round" stroke-linejoin="round"/>
<path d="M165.688 96.7372L169.477 92.7584" stroke="#011635" stroke-width="1.5" stroke-miterlimit="10" stroke-linecap="round" stroke-linejoin="round"/>
<path d="M165.688 92.7584L169.477 96.7372" stroke="#011635" stroke-width="1.5" stroke-miterlimit="10" stroke-linecap="round" stroke-linejoin="round"/>
<path d="M176.579 98.9024H178.428V109.82C178.428 110.794 178.249 111.622 177.891 112.303C177.533 112.984 177.029 113.502 176.377 113.855C175.726 114.207 174.958 114.384 174.073 114.384C173.238 114.384 172.495 114.232 171.843 113.929C171.192 113.621 170.68 113.183 170.307 112.617C169.934 112.05 169.748 111.376 169.748 110.596H171.567C171.567 111.028 171.674 111.406 171.888 111.729C172.107 112.047 172.405 112.296 172.783 112.475C173.161 112.654 173.591 112.743 174.073 112.743C174.605 112.743 175.058 112.631 175.43 112.408C175.803 112.184 176.087 111.856 176.281 111.423C176.479 110.986 176.579 110.451 176.579 109.82V98.9024ZM182.761 114.175H180.822L186.43 98.9024H188.339L193.947 114.175H192.008L187.444 101.319H187.325L182.761 114.175ZM183.477 108.209H191.292V109.85H183.477V108.209ZM171.359 123.902L175.893 136.759H176.072L180.606 123.902H182.545L176.937 139.175H175.028L169.42 123.902H171.359ZM184.238 139.175H182.299L187.907 123.902H189.816L195.424 139.175H193.485L188.921 126.319H188.801L184.238 139.175ZM184.953 133.209H192.769V134.85H184.953V133.209Z" fill="#011635"/>
<g opacity="0.45">
<path d="M328.132 99.6345H229.321C226.671 99.6345 224.521 101.891 224.521 104.674V109.084C224.521 111.868 226.671 114.124 229.321 114.124H328.132C330.783 114.124 332.932 111.868 332.932 109.084V104.674C332.932 101.891 330.783 99.6345 328.132 99.6345Z" fill="#8791FF"/>
<path d="M328.132 99.6345H229.321C226.671 99.6345 224.521 101.891 224.521 104.674V109.084C224.521 111.868 226.671 114.124 229.321 114.124H328.132C330.783 114.124 332.932 111.868 332.932 109.084V104.674C332.932 101.891 330.783 99.6345 328.132 99.6345Z" stroke="#8791FF" stroke-width="1.5" stroke-miterlimit="10" stroke-linecap="round" stroke-linejoin="round"/>
</g>
<path d="M324.41 95.725H225.599C222.948 95.725 220.799 97.9818 220.799 100.765V105.175C220.799 107.958 222.948 110.215 225.599 110.215H324.41C327.061 110.215 329.21 107.958 329.21 105.175V100.765C329.21 97.9818 327.061 95.725 324.41 95.725Z" fill="white"/>
<path d="M324.41 95.725H225.599C222.948 95.725 220.799 97.9818 220.799 100.765V105.175C220.799 107.958 222.948 110.215 225.599 110.215H324.41C327.061 110.215 329.21 107.958 329.21 105.175V100.765C329.21 97.9818 327.061 95.725 324.41 95.725Z" stroke="#011635" stroke-width="1.5" stroke-miterlimit="10" stroke-linecap="round" stroke-linejoin="round"/>
<path d="M321.204 100.605H249.32C248.075 100.605 247.066 101.664 247.066 102.971C247.066 104.278 248.075 105.337 249.32 105.337H321.204C322.448 105.337 323.457 104.278 323.457 102.971C323.457 101.664 322.448 100.605 321.204 100.605Z" fill="#F9CAD2"/>
<path d="M307.178 100.605H249.32C248.075 100.605 247.066 101.664 247.066 102.971C247.066 104.278 248.075 105.337 249.32 105.337H307.178V100.605Z" fill="#8791FF"/>
<path d="M240.797 101.022H237.008V105.001H240.797V101.022Z" stroke="#011635" stroke-width="1.5" stroke-miterlimit="10" stroke-linecap="round" stroke-linejoin="round"/>
<g opacity="0.45">
<path d="M328.132 79.4577H229.321C226.671 79.4577 224.521 81.7145 224.521 84.4977V88.9077C224.521 91.6916 226.671 93.9477 229.321 93.9477H328.132C330.783 93.9477 332.932 91.6916 332.932 88.9077V84.4977C332.932 81.7145 330.783 79.4577 328.132 79.4577Z" fill="#8791FF"/>
<path d="M328.132 79.4577H229.321C226.671 79.4577 224.521 81.7145 224.521 84.4977V88.9077C224.521 91.6916 226.671 93.9477 229.321 93.9477H328.132C330.783 93.9477 332.932 91.6916 332.932 88.9077V84.4977C332.932 81.7145 330.783 79.4577 328.132 79.4577Z" stroke="#8791FF" stroke-width="1.5" stroke-miterlimit="10" stroke-linecap="round" stroke-linejoin="round"/>
</g>
<path d="M324.41 75.5489H225.599C222.948 75.5489 220.799 77.8057 220.799 80.5889V84.9989C220.799 87.7828 222.948 90.0389 225.599 90.0389H324.41C327.061 90.0389 329.21 87.7821 329.21 84.9989V80.5889C329.21 77.805 327.061 75.5489 324.41 75.5489Z" fill="white"/>
<path d="M324.41 75.5489H225.599C222.948 75.5489 220.799 77.8057 220.799 80.5889V84.9989C220.799 87.7828 222.948 90.0389 225.599 90.0389H324.41C327.061 90.0389 329.21 87.7821 329.21 84.9989V80.5889C329.21 77.805 327.061 75.5489 324.41 75.5489Z" stroke="#011635" stroke-width="1.5" stroke-miterlimit="10" stroke-linecap="round" stroke-linejoin="round"/>
<path d="M321.204 80.4279H249.32C248.075 80.4279 247.066 81.487 247.066 82.7939C247.066 84.1008 248.075 85.1599 249.32 85.1599H321.204C322.448 85.1599 323.457 84.1008 323.457 82.7939C323.457 81.487 322.448 80.4279 321.204 80.4279Z" fill="#F9CAD2"/>
<path d="M265.491 80.4279H249.32C248.075 80.4279 247.066 81.487 247.066 82.7939C247.066 84.1008 248.075 85.1599 249.32 85.1599H265.491V80.4279Z" fill="#8791FF"/>
<path d="M240.797 80.8451H237.008V84.8239H240.797V80.8451Z" stroke="#011635" stroke-width="1.5" stroke-miterlimit="10" stroke-linecap="round" stroke-linejoin="round"/>
<g opacity="0.45">
<path d="M328.132 119.811H229.321C226.671 119.811 224.521 122.068 224.521 124.851V129.261C224.521 132.044 226.671 134.301 229.321 134.301H328.132C330.783 134.301 332.932 132.044 332.932 129.261V124.851C332.932 122.068 330.783 119.811 328.132 119.811Z" fill="#8791FF"/>
<path d="M328.132 119.811H229.321C226.671 119.811 224.521 122.068 224.521 124.851V129.261C224.521 132.044 226.671 134.301 229.321 134.301H328.132C330.783 134.301 332.932 132.044 332.932 129.261V124.851C332.932 122.068 330.783 119.811 328.132 119.811Z" stroke="#8791FF" stroke-width="1.5" stroke-miterlimit="10" stroke-linecap="round" stroke-linejoin="round"/>
</g>
<path d="M324.41 115.902H225.599C222.948 115.902 220.799 118.159 220.799 120.942V125.352C220.799 128.135 222.948 130.392 225.599 130.392H324.41C327.061 130.392 329.21 128.135 329.21 125.352V120.942C329.21 118.159 327.061 115.902 324.41 115.902Z" fill="white"/>
<path d="M324.41 115.902H225.599C222.948 115.902 220.799 118.159 220.799 120.942V125.352C220.799 128.135 222.948 130.392 225.599 130.392H324.41C327.061 130.392 329.21 128.135 329.21 125.352V120.942C329.21 118.159 327.061 115.902 324.41 115.902Z" stroke="#011635" stroke-width="1.5" stroke-miterlimit="10" stroke-linecap="round" stroke-linejoin="round"/>
<path d="M321.204 120.781H249.32C248.075 120.781 247.066 121.84 247.066 123.147C247.066 124.454 248.075 125.513 249.32 125.513H321.204C322.448 125.513 323.457 124.454 323.457 123.147C323.457 121.841 322.448 120.781 321.204 120.781Z" fill="#F9CAD2"/>
<path d="M318.465 120.781H249.32C248.075 120.781 247.066 121.84 247.066 123.147C247.066 124.454 248.075 125.513 249.32 125.513H318.466L318.465 120.781Z" fill="#8791FF"/>
<path d="M240.797 121.199H237.008V125.177H240.797V121.199Z" stroke="#011635" stroke-width="1.5" stroke-miterlimit="10" stroke-linecap="round" stroke-linejoin="round"/>
<path d="M225.339 83.5345C214.046 83.5345 214.593 92.5232 204.393 92.5232" stroke="#011635" stroke-width="1.5" stroke-miterlimit="10" stroke-linecap="round" stroke-linejoin="round"/>
<path d="M200.604 92.5232C200.604 91.4242 201.452 90.5338 202.498 90.5338C203.544 90.5338 204.393 91.4242 204.393 92.5232C204.393 93.6222 203.545 94.5126 202.498 94.5126C201.452 94.5126 200.604 93.6215 200.604 92.5232Z" fill="#011635" stroke="#011635" stroke-width="1.5" stroke-miterlimit="10" stroke-linecap="round" stroke-linejoin="round"/>
<path d="M225.338 83.5345C225.338 82.4362 226.186 81.5451 227.233 81.5451C228.279 81.5451 229.127 82.4355 229.127 83.5345C229.127 84.6335 228.279 85.5239 227.233 85.5239C226.187 85.5239 225.338 84.6335 225.338 83.5345Z" fill="#011635" stroke="#011635" stroke-width="1.5" stroke-miterlimit="10" stroke-linecap="round" stroke-linejoin="round"/>
<path d="M200.604 103.451C200.604 102.352 201.452 101.461 202.498 101.461C203.544 101.461 204.393 102.352 204.393 103.451C204.393 104.55 203.545 105.44 202.498 105.44C201.452 105.44 200.604 104.55 200.604 103.451Z" fill="#011635" stroke="#011635" stroke-width="1.5" stroke-miterlimit="10" stroke-linecap="round" stroke-linejoin="round"/>
<path d="M225.338 103.451C225.338 102.352 226.186 101.461 227.233 101.461C228.279 101.461 229.127 102.352 229.127 103.451C229.127 104.55 228.279 105.44 227.233 105.44C226.187 105.44 225.338 104.55 225.338 103.451Z" fill="#011635" stroke="#011635" stroke-width="1.5" stroke-miterlimit="10" stroke-linecap="round" stroke-linejoin="round"/>
<path d="M225.339 103.451H204.393" stroke="#011635" stroke-width="1.5" stroke-miterlimit="10" stroke-linecap="round" stroke-linejoin="round"/>
<path d="M225.339 122.668C214.046 122.668 214.593 113.679 204.393 113.679" stroke="#011635" stroke-width="1.5" stroke-miterlimit="10" stroke-linecap="round" stroke-linejoin="round"/>
<path d="M200.604 113.679C200.604 114.778 201.452 115.669 202.498 115.669C203.544 115.669 204.393 114.778 204.393 113.679C204.393 112.581 203.545 111.69 202.498 111.69C201.452 111.69 200.604 112.58 200.604 113.679Z" fill="#011635" stroke="#011635" stroke-width="1.5" stroke-miterlimit="10" stroke-linecap="round" stroke-linejoin="round"/>
<path d="M225.338 122.668C225.338 123.766 226.186 124.657 227.233 124.657C228.279 124.657 229.127 123.767 229.127 122.668C229.127 121.569 228.279 120.679 227.233 120.679C226.187 120.679 225.338 121.569 225.338 122.668Z" fill="#011635" stroke="#011635" stroke-width="1.5" stroke-miterlimit="10" stroke-linecap="round" stroke-linejoin="round"/>
</svg>