<svg width="64" height="60" viewBox="0 0 64 60" fill="none" xmlns="http://www.w3.org/2000/svg">
<g clip-path="url(#clip0_421_108)">
<path fill-rule="evenodd" clip-rule="evenodd" d="M63.5 30.0082C63.5 25.5451 58.2756 21.3177 50.2622 18.6914C52.113 9.95705 51.2876 3.01014 47.668 0.784063C46.8323 0.263182 45.8582 0.0164489 44.7917 0.0164489V3.08142C45.3813 3.08142 45.8582 3.20753 46.2581 3.43781C48.0063 4.50699 48.76 8.58631 48.1704 13.8335C48.0269 15.122 47.7961 16.4818 47.5142 17.869C44.9968 17.211 42.2488 16.7011 39.3623 16.3721C37.6294 13.8335 35.8298 11.5252 34.02 9.50745C38.2036 5.3404 42.1309 3.06497 44.802 3.06497V0C41.2695 0 36.6501 2.69213 31.9744 7.36361C27.2986 2.71955 22.6792 0.0548296 19.1467 0.0548296V3.1198C21.8025 3.1198 25.7451 5.38426 29.9338 9.51841C28.1343 11.5361 26.3398 13.828 24.6326 16.3721C21.7307 16.7011 18.9827 17.211 16.4653 17.8799C16.168 16.5092 15.9526 15.1768 15.7988 13.8993C15.1938 8.65211 15.9424 4.57279 17.6753 3.48716C18.0598 3.24043 18.5623 3.13077 19.1519 3.13077V0.0712784C18.0752 0.0712784 17.0959 0.318012 16.25 0.838892C12.6406 3.06497 11.8306 10.0009 13.6968 18.7078C5.69873 21.3397 0.5 25.5561 0.5 30.0082C0.5 34.4714 5.72437 38.6987 13.7378 41.3251C11.887 50.0594 12.7124 57.0063 16.332 59.2324C17.1677 59.7533 18.1418 60 19.2236 60C22.7561 60 27.3755 57.3079 32.0513 52.6364C36.7271 57.2805 41.3464 59.9452 44.8789 59.9452C45.9556 59.9452 46.9348 59.6984 47.7808 59.1776C51.3901 56.9515 52.2002 50.0155 50.334 41.3086C58.3013 38.6877 63.5 34.4549 63.5 30.0082ZM37.855 30.0082C37.855 26.543 35.23 23.7302 31.9846 23.7302C28.7444 23.7302 26.1143 26.5375 26.1143 30.0082C26.1143 33.4789 28.7393 36.2862 31.9846 36.2862C35.23 36.2807 37.855 33.4735 37.855 30.0082ZM46.781 20.8462C46.3042 22.6172 45.7146 24.443 45.0481 26.2688C44.52 25.1723 43.9714 24.0702 43.3665 22.9736C42.7769 21.877 42.1462 20.8023 41.5156 19.7606C43.3408 20.0512 45.0994 20.4076 46.781 20.8462ZM40.9004 35.4747C39.9006 37.328 38.8701 39.088 37.8037 40.7219C35.8914 40.9029 33.9534 40.9961 32 40.9961C30.062 40.9961 28.124 40.8974 26.2219 40.7329C25.1555 39.099 24.1147 37.3554 23.115 35.5131C22.1409 33.7147 21.2539 31.8889 20.4438 30.0466C21.2385 28.2043 22.1409 26.3675 23.0996 24.5691C24.0994 22.7159 25.1299 20.9559 26.1963 19.3219C28.1086 19.141 30.0466 19.0478 32 19.0478C33.938 19.0478 35.876 19.1465 37.7781 19.311C38.8445 20.9449 39.8853 22.6885 40.885 24.5308C41.8591 26.3292 42.7461 28.155 43.5562 29.9973C42.7461 31.834 41.8643 33.6708 40.9004 35.4747ZM45.0481 33.6873C45.7402 35.5296 46.3298 37.3664 46.822 39.1538C45.1404 39.5924 43.3665 39.9653 41.531 40.2504C42.1616 39.1922 42.7871 38.1066 43.3818 36.9935C43.9663 35.8969 44.52 34.7839 45.0481 33.6873ZM32.0256 48.3378C30.8311 47.0218 29.6365 45.5524 28.4573 43.9459C29.6108 44.0007 30.7952 44.0446 31.9897 44.0446C33.1946 44.0446 34.3892 44.0172 35.5581 43.9459C34.3994 45.5524 33.2048 47.0218 32.0256 48.3378ZM22.4741 40.2504C20.6489 39.9598 18.8904 39.6034 17.2087 39.1648C17.6855 37.3938 18.2751 35.5679 18.9417 33.7421C19.4697 34.8387 20.0183 35.9408 20.6233 37.0374C21.2283 38.1395 21.8435 39.2086 22.4741 40.2504ZM31.959 11.6732C33.1536 12.9891 34.3481 14.4586 35.5273 16.0651C34.3738 16.0102 33.1895 15.9664 31.9949 15.9664C30.79 15.9664 29.5955 15.9938 28.4265 16.0651C29.5852 14.4586 30.7798 12.9891 31.959 11.6732ZM22.4587 19.7606C21.8281 20.8188 21.2026 21.9044 20.6079 23.0175C20.0183 24.114 19.4646 25.2161 18.9365 26.3127C18.2444 24.4704 17.6548 22.6336 17.1626 20.8462C18.8494 20.4185 20.6233 20.0512 22.4587 19.7606ZM10.8359 36.9551C6.28833 34.8826 3.35059 32.163 3.35059 30.0082C3.35059 27.8534 6.29346 25.1174 10.8359 23.0613C11.9382 22.5514 13.1482 22.1018 14.394 21.6741C15.1272 24.3663 16.0911 27.1681 17.2856 30.0356C16.1064 32.8923 15.1528 35.6776 14.4351 38.3588C13.1636 37.9311 11.9536 37.465 10.8359 36.9551ZM17.7471 56.5786C15.9988 55.5095 15.2451 51.4301 15.8347 46.183C15.9783 44.8945 16.209 43.5347 16.491 42.1475C19.0083 42.8055 21.7563 43.3154 24.6428 43.6443C26.3757 46.1829 28.1753 48.4913 29.9851 50.509C25.7964 54.6706 21.8691 56.9515 19.198 56.9515C18.6187 56.935 18.1316 56.8144 17.7471 56.5786ZM48.2063 46.1172C48.8113 51.3643 48.0627 55.4437 46.3298 56.5293C45.9453 56.776 45.4429 56.8857 44.8533 56.8857C42.1975 56.8857 38.2549 54.6212 34.0662 50.4871C35.8657 48.4693 37.6602 46.1775 39.3674 43.6334C42.2693 43.3044 45.0173 42.7945 47.5347 42.1201C47.832 43.5073 48.0627 44.8396 48.2063 46.1172ZM53.1487 36.9551C52.0464 37.465 50.8364 37.9146 49.5906 38.3423C48.8574 35.6502 47.8936 32.8484 46.699 29.9808C47.8782 27.1242 48.8318 24.3388 49.5496 21.6577C50.821 22.0854 52.0259 22.5514 53.1589 23.0558C57.7065 25.1284 60.6443 27.8479 60.6443 30.0027C60.634 32.163 57.6963 34.8935 53.1487 36.9551Z" fill="#7F1DE4"/>
</g>
<defs>
<clipPath id="clip0_421_108">
<rect width="63" height="60" fill="white" transform="translate(0.5)"/>
</clipPath>
</defs>
</svg>
