<svg width="50" height="50" viewBox="0 0 50 50" fill="none" xmlns="http://www.w3.org/2000/svg">
<g clip-path="url(#clip0_421_138)">
<path fill-rule="evenodd" clip-rule="evenodd" d="M43.0429 27.9683C41.2933 27.977 39.7796 28.4286 38.5101 29.093C38.0421 28.1029 37.5742 27.2387 37.4928 26.5917C37.4033 25.8404 37.2975 25.3844 37.4033 24.4855C37.5091 23.591 37.9974 22.3186 37.9974 22.2144C37.9892 22.1188 37.8916 21.6629 36.8825 21.6498C35.8774 21.6411 35.0066 21.8583 34.909 22.1405C34.8113 22.4228 34.616 23.0698 34.4899 23.7343C34.3149 24.7157 32.4798 28.1854 31.4341 30.0093C31.0923 29.3014 30.7993 28.6761 30.7423 28.1767C30.6528 27.4254 30.547 26.9695 30.6528 26.0706C30.7586 25.176 31.2469 23.9036 31.2469 23.7994C31.2387 23.7039 31.1411 23.2479 30.132 23.2349C29.1269 23.2262 28.2562 23.4433 28.1585 23.7256C28.0608 24.0078 27.9551 24.6723 27.7394 25.3193C27.5359 25.9663 25.0945 31.7593 24.4598 33.2706C24.1383 34.0435 23.8535 34.6558 23.65 35.0727C23.4466 35.4896 23.6419 35.1031 23.6216 35.1465C23.4466 35.5026 23.3489 35.6981 23.3489 35.6981V35.7067C23.2106 35.9673 23.0641 36.2192 22.999 36.2192C22.9502 36.2192 22.8525 35.52 23.0193 34.5603C23.3815 32.5497 24.2604 29.41 24.2482 29.2971C24.2482 29.245 24.415 28.6935 23.6826 28.4112C22.9705 28.1289 22.7142 28.5979 22.6572 28.5979C22.6002 28.5979 22.5514 28.763 22.5514 28.763C22.5514 28.763 23.3408 25.2281 21.0377 25.2281C19.5932 25.2281 17.5994 26.9043 16.6147 28.4373C15.9881 28.802 14.6616 29.575 13.2537 30.3958C12.7166 30.7084 12.1592 31.0428 11.6343 31.3425L11.5285 31.2165C8.73305 28.0508 3.56541 25.8013 3.78106 21.5282C3.85838 19.9736 4.367 15.8785 13.7054 10.9193C21.3511 6.85467 27.4749 7.97072 28.541 10.4503C30.0547 13.9939 25.2695 20.5816 17.3187 21.5282C14.2913 21.893 12.7003 20.6423 12.2975 20.1733C11.8784 19.6826 11.8174 19.6609 11.6627 19.7565C11.4105 19.9041 11.5651 20.3384 11.6627 20.5989C11.8987 21.2547 12.8753 22.4228 14.5355 23.0047C15.9922 23.5171 19.5444 23.7951 23.8413 22.0233C28.6549 20.0344 32.4147 14.5063 31.312 9.89013C30.1889 5.19581 22.8851 3.64985 15.98 6.26843C11.8703 7.83175 7.41469 10.2723 4.21238 13.4728C0.403787 17.2638 -0.202496 20.5772 0.0497825 21.9538C0.936827 26.8653 7.27635 30.0614 9.81541 32.4281C9.68927 32.5019 9.57127 32.5757 9.46547 32.6365C8.19594 33.3053 3.36196 36.002 2.14939 38.8594C0.782205 42.0903 2.36505 44.4179 3.41892 44.7306C6.68227 45.699 10.0229 43.9576 11.8296 41.0915C13.6281 38.2254 13.4124 34.5038 12.5823 32.8059L12.5539 32.7451L13.5508 32.1198C14.1937 31.7116 14.8284 31.3381 15.3859 31.0168C15.0726 31.9244 14.8488 32.997 14.7308 34.5603C14.5924 36.3929 15.2964 38.7726 16.2241 39.7106C16.6351 40.1188 17.1234 40.1275 17.4245 40.1275C18.4987 40.1275 18.987 39.1808 19.5241 38.043C20.1873 36.6578 20.7733 35.051 20.7733 35.051C20.7733 35.051 20.0408 39.3979 22.0428 39.3979C22.7752 39.3979 23.5076 38.3861 23.8413 37.865V37.8737C23.8413 37.8737 23.8616 37.8433 23.8983 37.7695C23.9389 37.7043 23.9796 37.6392 24.0163 37.5697V37.548C24.3092 37.0052 24.9643 35.7675 25.9409 33.7135C27.2023 31.0645 28.4108 27.7511 28.4108 27.7511C28.4108 27.7511 28.5288 28.5632 28.8909 29.8964C29.1066 30.6867 29.5745 31.5552 29.9367 32.3977C29.6437 32.8363 29.4687 33.0838 29.4687 33.0838L29.4769 33.0925C29.2409 33.4269 28.9804 33.7786 28.7038 34.1347C27.7068 35.4071 26.5146 36.8532 26.36 37.2701C26.1728 37.7608 26.2135 38.1255 26.5757 38.4165C26.8401 38.6249 27.3081 38.6684 27.8045 38.625C28.7038 38.5642 29.3263 38.321 29.6396 38.1777C30.1279 37.9909 30.6854 37.7087 31.2225 37.2918C32.199 36.5188 32.7931 35.4245 32.7361 33.9654C32.7077 33.162 32.4635 32.3716 32.1583 31.6204C32.2479 31.4858 32.3333 31.3511 32.4228 31.2035C33.965 28.7977 35.1572 26.1487 35.1572 26.1487C35.1572 26.1487 35.2752 26.9608 35.6373 28.294C35.8245 28.9714 36.1948 29.7096 36.5244 30.4392C35.0799 31.6985 34.1725 33.1576 33.8592 34.1174C33.2814 35.8891 33.733 36.6925 34.5835 36.8792C34.966 36.9617 35.5112 36.775 35.9222 36.5883C36.4308 36.4102 37.0452 36.1106 37.6108 35.659C38.5874 34.886 39.5233 33.8134 39.4744 32.3673C39.4459 31.6985 39.2791 31.0428 39.0553 30.4175C40.2842 29.8747 41.8792 29.562 43.8974 29.8225C48.2431 30.3654 49.1017 33.2619 48.9389 34.4691C48.7721 35.6763 47.8647 36.3451 47.5636 36.5535C47.2625 36.7533 47.1649 36.8228 47.1933 36.9704C47.234 37.1876 47.3683 37.1789 47.6328 37.1354C47.9949 37.0746 49.9196 36.1453 49.9969 33.9133C50.1149 31.0645 47.5636 27.9379 43.0429 27.9683ZM9.52651 40.0276C8.09015 41.7038 6.06785 42.3422 5.20929 41.7994C4.28155 41.2262 4.64369 38.7552 6.40965 36.9748C7.48386 35.8891 8.87953 34.8903 9.79913 34.2737C10.0026 34.1391 10.3159 33.9393 10.6862 33.7005C10.7431 33.657 10.7838 33.6397 10.7838 33.6397C10.853 33.5962 10.9303 33.5441 11.0076 33.492C11.6627 36.0368 11.0402 38.2645 9.52651 40.0276ZM20.0246 32.4107C19.5281 33.7135 18.4702 37.0616 17.8354 36.8705C17.2902 36.7142 16.9565 34.1825 17.7296 31.6812C18.1203 30.4218 18.9503 28.9193 19.4386 28.3374C20.228 27.3994 21.0906 27.0867 21.3022 27.4732C21.5586 27.9683 20.3379 31.5943 20.0246 32.4107ZM28.6875 36.8271C28.4718 36.94 28.2765 37.0269 28.1911 36.9617C28.1219 36.9183 28.2806 36.762 28.2806 36.762C28.2806 36.762 29.3629 35.52 29.7942 34.9468C30.0384 34.6124 30.3314 34.2259 30.6447 33.7917V33.9176C30.6406 35.4201 29.2938 36.4233 28.6875 36.8271ZM35.3688 35.203C35.2142 35.0771 35.2304 34.6906 35.7594 33.4833C35.9629 33.0057 36.4349 32.2023 37.2446 31.4423C37.3423 31.755 37.3992 32.059 37.3911 32.3369C37.3789 34.2129 36.1297 34.912 35.3688 35.203Z" fill="#7F1DE4"/>
</g>
<defs>
<clipPath id="clip0_421_138">
<rect width="50" height="50" fill="white"/>
</clipPath>
</defs>
</svg>
