<svg width="65" height="46" viewBox="0 0 65 46" fill="none" xmlns="http://www.w3.org/2000/svg">
<g clip-path="url(#clip0_421_113)">
<path fill-rule="evenodd" clip-rule="evenodd" d="M32.5 0C23.8354 0 18.4188 5.11111 16.25 15.3333C19.5014 10.2243 23.2924 8.30791 27.6229 9.58412C30.0985 10.3122 31.8547 12.4273 33.8224 14.7685C36.9963 18.5845 40.6991 22.9969 48.75 22.9969C57.4146 22.9969 62.8312 17.8857 65 7.66353C61.7521 12.7767 57.9612 14.6931 53.6271 13.4127C51.1515 12.6847 49.3953 10.5695 47.4276 8.22841C44.2432 4.3935 40.5562 0 32.5 0ZM16.25 22.9969C7.58545 22.9969 2.16878 28.108 0 38.3302C3.25494 33.2212 7.0459 31.3048 11.3729 32.581C13.8485 33.309 15.6047 35.4242 17.5724 37.7716C20.7463 41.5814 24.4491 46 32.5 46C41.1646 46 46.5812 40.8889 48.75 30.6667C45.5021 35.7757 41.7112 37.6879 37.3771 36.4033C34.9015 35.6753 33.1453 33.5601 31.1776 31.219C28.0037 27.4029 24.3009 22.9843 16.25 22.9843V22.9969Z" fill="#7F1DE4"/>
</g>
<defs>
<clipPath id="clip0_421_113">
<rect width="65" height="46" fill="white"/>
</clipPath>
</defs>
</svg>
