<svg width="40" height="40" viewBox="0 0 40 40" fill="none" xmlns="http://www.w3.org/2000/svg">
<path d="M28.75 0C28.595 0 13.75 0 13.75 0C11.105 0 8.75002 2.42627 8.75002 5.00003L7.30501 5.03377C4.66125 5.03377 2.5 7.42624 2.5 10V35C2.5 37.5738 4.85501 40 7.50003 40H26.25C28.895 40 31.25 37.5738 31.25 35H32.5C35.145 35 37.5 32.5738 37.5 30.0001V10.03L28.75 0ZM26.25 37.5001H7.50003C6.18753 37.5001 5.00004 36.2739 5.00004 35V10C5.00004 8.72627 6.0688 7.54125 7.3813 7.54125L8.75002 7.50001V30.0001C8.75002 32.5738 11.105 35 13.75 35H28.75C28.75 36.2738 27.5625 37.5001 26.25 37.5001ZM35 30.0001C35 31.2737 33.8125 32.5 32.5 32.5H13.75C12.4375 32.5 11.25 31.2738 11.25 30.0001V5.00003C11.25 3.7263 12.4375 2.50004 13.75 2.50004H26.25C26.23 5.3788 26.25 7.5313 26.25 7.5313C26.25 10.1288 28.5875 12.5 31.25 12.5C31.25 12.5 32.5776 12.5 35 12.5V30.0001ZM31.25 10C29.9188 10 28.75 7.58128 28.75 6.28376C28.75 6.28376 28.75 4.96875 28.75 2.53876V2.53624L35 10H31.25ZM28.75 17.5225H17.5C16.81 17.5225 16.25 18.0813 16.25 18.7713C16.25 19.4613 16.81 20.02 17.5 20.02H28.75C29.44 20.02 30 19.4612 30 18.7713C30 18.0813 29.44 17.5225 28.75 17.5225ZM28.75 23.7663H17.5C16.81 23.7663 16.25 24.325 16.25 25.015C16.25 25.705 16.81 26.2637 17.5 26.2637H28.75C29.44 26.2637 30 25.705 30 25.015C30 24.325 29.44 23.7663 28.75 23.7663Z" fill="#7F1DE4"/>
</svg>
