 <svg
              width="35"
              height="35"
              viewBox="0 0 35 35"
              fill="none"
              xmlns="http://www.w3.org/2000/svg"
            >
              <path
                d="M29.2578 15.3125H19.6875C18.8173 15.3125 17.9827 14.9668 17.3673 14.3514C16.752 13.7361 16.4062 12.9015 16.4062 12.0312V2.46094C16.4062 2.38842 16.3774 2.31887 16.3262 2.26759C16.2749 2.21631 16.2053 2.1875 16.1328 2.1875H9.84375C8.68343 2.1875 7.57063 2.64844 6.75016 3.46891C5.92969 4.28938 5.46875 5.40218 5.46875 6.5625V28.4375C5.46875 29.5978 5.92969 30.7106 6.75016 31.5311C7.57063 32.3516 8.68343 32.8125 9.84375 32.8125H25.1562C26.3166 32.8125 27.4294 32.3516 28.2498 31.5311C29.0703 30.7106 29.5312 29.5978 29.5312 28.4375V15.5859C29.5312 15.5134 29.5024 15.4439 29.4512 15.3926C29.3999 15.3413 29.3303 15.3125 29.2578 15.3125Z"
                fill="white"
              />
              <path
                d="M28.6576 12.892L18.8269 3.06124C18.8077 3.04224 18.7834 3.02931 18.757 3.02408C18.7305 3.01885 18.7031 3.02156 18.6782 3.03186C18.6533 3.04216 18.632 3.0596 18.617 3.08197C18.6019 3.10435 18.5939 3.13067 18.5938 3.15763V12.0314C18.5938 12.3214 18.709 12.5996 18.9141 12.8048C19.1192 13.0099 19.3974 13.1251 19.6875 13.1251H28.5612C28.5882 13.125 28.6145 13.1169 28.6369 13.1019C28.6593 13.0869 28.6767 13.0655 28.687 13.0406C28.6973 13.0157 28.7 12.9883 28.6948 12.9619C28.6896 12.9354 28.6766 12.9111 28.6576 12.892Z"
                fill="white"
              />
</svg>