<svg width="60" height="64" viewBox="0 0 60 64" fill="none" xmlns="http://www.w3.org/2000/svg">
<g clip-path="url(#clip0_421_128)">
<path fill-rule="evenodd" clip-rule="evenodd" d="M0 0L5.46008 57.599L29.964 64L54.5288 57.5938L60 0H0ZM39.2949 33.1354L38.4255 42.2969L30.036 44.4271L21.6742 42.3073L21.1426 36.6667H13.6004L14.6525 47.7604L30.0748 51.7708L45.4472 47.7604L47.5072 26.0729H20.1347L19.4481 18.8385H48.1883L48.8583 11.776H11.2358L13.2626 33.1406L39.2949 33.1354ZM49.8496 53.9271L30.1024 59.0729V59.099L30.0526 59.0833L30.0028 59.099V59.0729L10.2557 53.9271L5.58191 4.71354H54.5233L49.8496 53.9271Z" fill="#7F1DE4"/>
</g>
<defs>
<clipPath id="clip0_421_128">
<rect width="60" height="64" fill="white"/>
</clipPath>
</defs>
</svg>
