<svg width="51" height="50" viewBox="0 0 51 50" fill="none" xmlns="http://www.w3.org/2000/svg">
<g clip-path="url(#clip0_421_99)">
<path d="M25.4727 49.8672C39.2258 49.8672 50.375 38.718 50.375 24.9648C50.375 11.2117 39.2258 0.0625 25.4727 0.0625C11.7195 0.0625 0.570312 11.2117 0.570312 24.9648C0.570312 38.718 11.7195 49.8672 25.4727 49.8672Z" fill="#7F1DE4"/>
<path d="M41.9381 43.6472L19.7015 15.0039H15.5117V34.9177H18.8636V19.2603L39.3072 45.6736C40.2281 45.0573 41.107 44.3803 41.9381 43.6472Z" fill="url(#paint0_linear_421_99)"/>
<path fill-rule="evenodd" clip-rule="evenodd" d="M32.3906 15.0039H35.7107V34.9258H32.3906V15.0039Z" fill="url(#paint1_linear_421_99)"/>
</g>
<defs>
<linearGradient id="paint0_linear_421_99" x1="30.7299" y1="32.2975" x2="40.5525" y2="44.472" gradientUnits="userSpaceOnUse">
<stop stop-color="white"/>
<stop offset="1" stop-color="white" stop-opacity="0"/>
</linearGradient>
<linearGradient id="paint1_linear_421_99" x1="34.0507" y1="15.0043" x2="33.995" y2="29.6345" gradientUnits="userSpaceOnUse">
<stop stop-color="white"/>
<stop offset="1" stop-color="white" stop-opacity="0"/>
</linearGradient>
<clipPath id="clip0_421_99">
<rect width="50" height="50" fill="white" transform="translate(0.5)"/>
</clipPath>
</defs>
</svg>
