<svg width="51" height="50" viewBox="0 0 51 50" fill="none" xmlns="http://www.w3.org/2000/svg">
<path fill-rule="evenodd" clip-rule="evenodd" d="M30.7509 35.4316C22.6179 35.4316 20.9128 31.7712 20.9128 28.668C20.9128 28.5277 20.9694 28.3932 21.07 28.2941C21.1707 28.1949 21.3072 28.1392 21.4495 28.1392H23.8523C23.98 28.1397 24.1034 28.185 24.2002 28.267C24.2971 28.349 24.3611 28.4623 24.3807 28.5866C24.744 30.9984 25.8215 32.2145 30.7426 32.2145C34.6605 32.2145 36.3243 31.3319 36.3243 29.2984C36.3243 28.1189 35.8495 27.2648 29.7642 26.6588C24.6738 26.1626 21.5073 25.0604 21.5073 21.0462C21.5073 17.3532 24.6697 15.1529 29.9706 15.1529C35.9238 15.1529 38.8715 17.1865 39.2431 21.5627C39.2491 21.6367 39.2393 21.7111 39.2144 21.7811C39.1896 21.8511 39.1501 21.9153 39.0986 21.9694C39.0455 22.0245 38.9814 22.0681 38.9103 22.0975C38.8393 22.1269 38.7628 22.1414 38.6857 22.1402H36.3119C36.1912 22.1405 36.0741 22.1004 35.9796 22.0265C35.8851 21.9527 35.8188 21.8493 35.7917 21.7335C35.2096 19.1997 33.8059 18.3863 29.983 18.3863C25.7059 18.3782 25.2064 19.8464 25.2064 20.9445C25.2064 22.2785 25.7926 22.669 31.5642 23.4214C37.3357 24.1738 39.9945 25.2312 39.9945 29.1804C39.9945 33.1296 36.6174 35.456 30.7261 35.456L30.7509 35.4316ZM25.0082 49.9919C24.3243 49.9923 23.6523 49.8155 23.0596 49.4794L16.867 45.8597C15.9381 45.3472 16.3922 45.1683 16.6977 45.0462C17.6826 44.7414 18.6255 44.3179 19.505 43.7854C19.5785 43.7515 19.6596 43.7366 19.7405 43.7423C19.8215 43.748 19.8996 43.7741 19.9674 43.818L24.7358 46.604C24.8249 46.6499 24.9241 46.6739 25.0248 46.6739C25.1254 46.6739 25.2246 46.6499 25.3137 46.604L43.8917 36.0294C43.9787 35.9781 44.0507 35.9054 44.1006 35.8184C44.1505 35.7314 44.1767 35.6332 44.1766 35.5333V14.4249C44.1769 14.3234 44.1504 14.2235 44.0998 14.1351C44.0491 14.0467 43.976 13.9728 43.8876 13.9206L25.3096 3.34608C25.2225 3.29606 25.1235 3.26971 25.0227 3.26971C24.9219 3.26971 24.8229 3.29606 24.7358 3.34608L6.1578 13.9206C6.06867 13.9713 5.99465 14.0442 5.9432 14.132C5.89174 14.2198 5.86466 14.3194 5.86468 14.4208V35.5699C5.86444 35.6697 5.89105 35.7679 5.94181 35.8543C5.99257 35.9408 6.06567 36.0124 6.15367 36.062L11.244 38.9578C13.9977 40.304 15.711 38.6975 15.711 37.0869V16.2266C15.7104 16.1567 15.7241 16.0874 15.7511 16.0227C15.7781 15.9581 15.818 15.8994 15.8684 15.8501C15.9188 15.8008 15.9787 15.762 16.0445 15.7359C16.1104 15.7097 16.1808 15.6968 16.2518 15.6979H18.6009C18.6715 15.6974 18.7416 15.7107 18.8069 15.7371C18.8723 15.7634 18.9317 15.8024 18.9816 15.8516C19.0316 15.9008 19.0711 15.9593 19.0979 16.0237C19.1246 16.0881 19.1382 16.1571 19.1376 16.2266V37.095C19.1376 40.727 17.1271 42.789 13.6344 42.789C12.561 42.789 11.7105 42.789 9.34908 41.6421L4.44863 38.8927C3.85604 38.5523 3.36431 38.0649 3.02242 37.4791C2.68053 36.8932 2.50041 36.2294 2.50001 35.5536L2.50001 14.4046C2.49875 13.7285 2.67816 13.064 3.02021 12.4778C3.36227 11.8917 3.85491 11.4046 4.44863 11.0655L23.0555 0.490962C23.6552 0.168806 24.3273 0 25.0103 0C25.6933 0 26.3655 0.168806 26.9651 0.490962L45.5431 11.0655C46.1408 11.4059 46.6366 11.8959 46.9802 12.4859C47.3239 13.0758 47.5032 13.7447 47.5 14.4249V35.5739C47.4983 36.2495 47.3177 36.9129 46.9759 37.4985C46.6341 38.0841 46.1431 38.5717 45.5513 38.913L26.9734 49.4875C26.3779 49.8242 25.7031 50.0009 25.0165 50L25.0082 49.9919Z" fill="#7F1DE4"/>
</svg>
