<svg width="51" height="50" viewBox="0 0 51 50" fill="none" xmlns="http://www.w3.org/2000/svg">
<g clip-path="url(#clip0_421_134)">
<path fill-rule="evenodd" clip-rule="evenodd" d="M0.5 25V0H50.5V50H0.5V25Z" fill="#7F1DE4"/>
<path fill-rule="evenodd" clip-rule="evenodd" d="M11.4629 25.0855V27.1241H17.9611V45.6258H22.5754V27.1241H29.0736V25.1221C29.0736 23.9991 29.0736 23.0835 29.0247 23.0591C29.0247 23.0225 25.0615 23.0103 20.2479 23.0103L11.4995 23.0469V25.0977L11.4629 25.0855ZM40.6743 22.9981C41.9479 23.2992 42.9245 23.8729 43.7993 24.7844C44.2632 25.2849 44.9508 26.1597 44.9997 26.3835C44.9997 26.4567 42.839 27.9216 41.5247 28.7354C41.4759 28.772 41.2765 28.5604 41.0731 28.2349C40.422 27.3112 39.7588 26.9084 38.7212 26.8352C37.2197 26.7334 36.2228 27.5228 36.2228 28.833C36.2228 29.2318 36.2961 29.4597 36.4466 29.7811C36.7843 30.4688 37.411 30.8798 39.3478 31.7302C42.9245 33.2683 44.4748 34.2814 45.4106 35.73C46.4727 37.3535 46.7087 39.9048 45.9966 41.8172C45.195 43.9046 43.2459 45.3166 40.4587 45.7805C39.5838 45.931 37.5819 45.9066 36.646 45.7438C34.6481 45.3695 32.7316 44.3685 31.5597 43.0827C31.0959 42.5822 30.2088 41.2435 30.2617 41.1581L30.7378 40.857L32.6136 39.7705L34.0256 38.9445L34.3511 39.384C34.762 40.035 35.6898 40.9099 36.2269 41.211C37.8504 42.0492 40.0273 41.9352 41.1016 40.9628C41.5654 40.5396 41.7648 40.0879 41.7648 39.4613C41.7648 38.8876 41.6753 38.6231 41.3905 38.1877C40.9917 37.6384 40.1901 37.1867 37.9399 36.1898C35.3521 35.0912 34.2534 34.3913 33.228 33.313C32.6421 32.662 32.105 31.6488 31.8527 30.8146C31.6655 30.0904 31.6045 28.3163 31.7795 27.6001C32.3166 25.1018 34.2046 23.3521 36.9064 22.8516C37.7812 22.6766 39.8442 22.7499 40.7069 22.9777L40.6743 22.9981Z" fill="white"/>
</g>
<defs>
<clipPath id="clip0_421_134">
<rect width="50" height="50" fill="white" transform="translate(0.5)"/>
</clipPath>
</defs>
</svg>
